<svg width="1036" height="67" viewBox="0 0 1036 67" fill="none" xmlns="http://www.w3.org/2000/svg">
<path d="M55.945 96.0651C48.8446 96.0651 42.2768 94.9112 36.2415 92.6036C30.295 90.2073 25.1029 86.879 20.6652 82.6188C16.3162 78.2698 12.8992 73.2108 10.4141 67.4418C7.92894 61.6728 6.68638 55.3269 6.68638 48.404C6.68638 41.4812 7.92894 35.1353 10.4141 29.3663C12.8992 23.5972 16.3606 18.5826 20.7983 14.3224C25.236 9.97348 30.4281 6.6452 36.3747 4.33759C42.4099 1.94123 48.9778 0.743049 56.0781 0.743049C63.2672 0.743049 69.8794 1.98561 75.9147 4.47072C82.0387 6.86708 87.2308 10.4616 91.491 15.2544L82.8375 23.6416C79.2873 19.914 75.2934 17.1626 70.8557 15.3875C66.418 13.5236 61.6696 12.5917 56.6106 12.5917C51.3741 12.5917 46.4926 13.4793 41.9662 15.2544C37.5285 17.0294 33.6677 19.5146 30.3838 22.7097C27.0998 25.9049 24.526 29.7213 22.6621 34.159C20.8871 38.508 19.9995 43.2563 19.9995 48.404C19.9995 53.5518 20.8871 58.3445 22.6621 62.7822C24.526 67.1312 27.0998 70.9032 30.3838 74.0984C33.6677 77.2935 37.5285 79.7787 41.9662 81.5537C46.4926 83.3288 51.3741 84.2164 56.6106 84.2164C61.6696 84.2164 66.418 83.3288 70.8557 81.5537C75.2934 79.6899 79.2873 76.8498 82.8375 73.0333L91.491 81.4206C87.2308 86.2133 82.0387 89.8523 75.9147 92.3374C69.8794 94.8225 63.2228 96.0651 55.945 96.0651ZM150.602 96.0651C143.502 96.0651 136.89 94.8669 130.766 92.4705C124.73 90.0741 119.494 86.7459 115.056 82.4857C110.619 78.1367 107.157 73.0777 104.672 67.3087C102.187 61.5397 100.944 55.2381 100.944 48.404C100.944 41.57 102.187 35.2684 104.672 29.4994C107.157 23.7304 110.619 18.7158 115.056 14.4556C119.494 10.1066 124.73 6.73395 130.766 4.33759C136.801 1.94123 143.413 0.743049 150.602 0.743049C157.703 0.743049 164.226 1.94123 170.173 4.33759C176.208 6.6452 181.444 9.97348 185.882 14.3224C190.409 18.5826 193.87 23.5972 196.266 29.3663C198.751 35.1353 199.994 41.4812 199.994 48.404C199.994 55.3269 198.751 61.6728 196.266 67.4418C193.87 73.2108 190.409 78.2698 185.882 82.6188C181.444 86.879 176.208 90.2073 170.173 92.6036C164.226 94.9112 157.703 96.0651 150.602 96.0651ZM150.602 84.2164C155.75 84.2164 160.498 83.3288 164.847 81.5537C169.285 79.7787 173.102 77.2935 176.297 74.0984C179.581 70.8145 182.11 66.9981 183.885 62.6491C185.749 58.3001 186.681 53.5518 186.681 48.404C186.681 43.2563 185.749 38.508 183.885 34.159C182.11 29.81 179.581 26.038 176.297 22.8428C173.102 19.5589 169.285 17.0294 164.847 15.2544C160.498 13.4793 155.75 12.5917 150.602 12.5917C145.366 12.5917 140.529 13.4793 136.091 15.2544C131.742 17.0294 127.926 19.5589 124.642 22.8428C121.358 26.038 118.784 29.81 116.92 34.159C115.145 38.508 114.258 43.2563 114.258 48.404C114.258 53.5518 115.145 58.3001 116.92 62.6491C118.784 66.9981 121.358 70.8145 124.642 74.0984C127.926 77.2935 131.742 79.7787 136.091 81.5537C140.529 83.3288 145.366 84.2164 150.602 84.2164ZM220.342 95V1.80809H231.259L273.062 72.2345H267.205L308.475 1.80809H319.392L319.525 95H306.745L306.611 21.9109H309.673L272.929 83.6838H266.805L229.795 21.9109H233.123V95H220.342ZM347.493 95V1.80809H360.806V95H347.493ZM388.707 95V1.80809H399.623L461.263 78.3586H455.539V1.80809H468.852V95H457.935L396.295 18.4495H402.02V95H388.707ZM538.815 96.0651C531.626 96.0651 525.014 94.9112 518.979 92.6036C512.943 90.2073 507.707 86.879 503.269 82.6188C498.831 78.2698 495.37 73.2108 492.885 67.4418C490.4 61.6728 489.157 55.3269 489.157 48.404C489.157 41.4812 490.4 35.1353 492.885 29.3663C495.37 23.5972 498.831 18.5826 503.269 14.3224C507.796 9.97348 513.077 6.6452 519.112 4.33759C525.147 1.94123 531.804 0.743049 539.082 0.743049C546.448 0.743049 553.193 1.94123 559.317 4.33759C565.442 6.73395 570.634 10.3285 574.894 15.1212L566.64 23.3754C562.823 19.6477 558.652 16.9407 554.125 15.2544C549.688 13.4793 544.851 12.5917 539.614 12.5917C534.289 12.5917 529.319 13.4793 524.703 15.2544C520.177 17.0294 516.227 19.5146 512.855 22.7097C509.571 25.9049 506.997 29.7213 505.133 34.159C503.358 38.508 502.47 43.2563 502.47 48.404C502.47 53.463 503.358 58.2114 505.133 62.6491C506.997 66.9981 509.571 70.8145 512.855 74.0984C516.227 77.2935 520.177 79.7787 524.703 81.5537C529.23 83.3288 534.156 84.2164 539.481 84.2164C544.451 84.2164 549.199 83.462 553.726 81.9531C558.341 80.3556 562.601 77.7373 566.507 74.0984L574.095 84.2164C569.48 88.1216 564.066 91.0948 557.853 93.1362C551.729 95.0888 545.383 96.0651 538.815 96.0651ZM561.314 82.4857V47.8715H574.095V84.2164L561.314 82.4857ZM662.496 96.0651C655.396 96.0651 648.606 95 642.127 92.8699C635.648 90.651 630.545 87.8109 626.817 84.3495L631.743 73.9653C635.293 77.0717 639.82 79.6455 645.322 81.6869C650.825 83.7282 656.55 84.7489 662.496 84.7489C667.91 84.7489 672.304 84.1276 675.676 82.8851C679.049 81.6425 681.534 79.9562 683.132 77.8261C684.729 75.6072 685.528 73.1221 685.528 70.3707C685.528 67.1756 684.463 64.6017 682.333 62.6491C680.292 60.6965 677.585 59.1433 674.212 57.9895C670.928 56.7469 667.289 55.6819 663.295 54.7943C659.301 53.9068 655.263 52.8861 651.18 51.7323C647.186 50.4898 643.503 48.9366 640.13 47.0727C636.846 45.2089 634.184 42.7238 632.142 39.6174C630.101 36.4222 629.08 32.3395 629.08 27.3693C629.08 22.5766 630.323 18.1832 632.808 14.1893C635.382 10.1066 639.287 6.86708 644.524 4.47072C649.849 1.98561 656.594 0.743049 664.76 0.743049C670.174 0.743049 675.543 1.45308 680.868 2.87315C686.194 4.29321 690.809 6.33456 694.714 8.99719L690.321 19.6477C686.327 16.9851 682.111 15.0768 677.673 13.923C673.236 12.6805 668.931 12.0592 664.76 12.0592C659.523 12.0592 655.218 12.7249 651.846 14.0562C648.473 15.3875 645.988 17.1626 644.39 19.3814C642.882 21.6003 642.127 24.0854 642.127 26.8368C642.127 30.1207 643.148 32.7389 645.189 34.6915C647.319 36.6441 650.026 38.1973 653.31 39.3511C656.683 40.5049 660.366 41.57 664.36 42.5463C668.354 43.4338 672.348 44.4545 676.342 45.6083C680.425 46.7621 684.108 48.2709 687.392 50.1348C690.765 51.9986 693.472 54.4837 695.513 57.5901C697.554 60.6965 698.575 64.6904 698.575 69.5719C698.575 74.2759 697.288 78.6692 694.714 82.7519C692.14 86.7459 688.146 89.9854 682.732 92.4705C677.407 94.8669 670.662 96.0651 662.496 96.0651ZM760.094 96.0651C752.994 96.0651 746.382 94.8669 740.257 92.4705C734.222 90.0741 728.986 86.7459 724.548 82.4857C720.11 78.1367 716.649 73.0777 714.164 67.3087C711.679 61.5397 710.436 55.2381 710.436 48.404C710.436 41.57 711.679 35.2684 714.164 29.4994C716.649 23.7304 720.11 18.7158 724.548 14.4556C728.986 10.1066 734.222 6.73395 740.257 4.33759C746.293 1.94123 752.905 0.743049 760.094 0.743049C767.194 0.743049 773.718 1.94123 779.664 4.33759C785.7 6.6452 790.936 9.97348 795.374 14.3224C799.9 18.5826 803.362 23.5972 805.758 29.3663C808.243 35.1353 809.486 41.4812 809.486 48.404C809.486 55.3269 808.243 61.6728 805.758 67.4418C803.362 73.2108 799.9 78.2698 795.374 82.6188C790.936 86.879 785.7 90.2073 779.664 92.6036C773.718 94.9112 767.194 96.0651 760.094 96.0651ZM760.094 84.2164C765.242 84.2164 769.99 83.3288 774.339 81.5537C778.777 79.7787 782.593 77.2935 785.788 74.0984C789.072 70.8145 791.602 66.9981 793.377 62.6491C795.241 58.3001 796.173 53.5518 796.173 48.404C796.173 43.2563 795.241 38.508 793.377 34.159C791.602 29.81 789.072 26.038 785.788 22.8428C782.593 19.5589 778.777 17.0294 774.339 15.2544C769.99 13.4793 765.242 12.5917 760.094 12.5917C754.858 12.5917 750.02 13.4793 745.583 15.2544C741.234 17.0294 737.417 19.5589 734.133 22.8428C730.85 26.038 728.276 29.81 726.412 34.159C724.637 38.508 723.749 43.2563 723.749 48.404C723.749 53.5518 724.637 58.3001 726.412 62.6491C728.276 66.9981 730.85 70.8145 734.133 74.0984C737.417 77.2935 741.234 79.7787 745.583 81.5537C750.02 83.3288 754.858 84.2164 760.094 84.2164ZM871.904 96.0651C864.803 96.0651 858.191 94.8669 852.067 92.4705C846.032 90.0741 840.795 86.7459 836.357 82.4857C831.92 78.1367 828.458 73.0777 825.973 67.3087C823.488 61.5397 822.246 55.2381 822.246 48.404C822.246 41.57 823.488 35.2684 825.973 29.4994C828.458 23.7304 831.92 18.7158 836.357 14.4556C840.795 10.1066 846.032 6.73395 852.067 4.33759C858.102 1.94123 864.714 0.743049 871.904 0.743049C879.004 0.743049 885.527 1.94123 891.474 4.33759C897.509 6.6452 902.746 9.97348 907.183 14.3224C911.71 18.5826 915.171 23.5972 917.568 29.3663C920.053 35.1353 921.295 41.4812 921.295 48.404C921.295 55.3269 920.053 61.6728 917.568 67.4418C915.171 73.2108 911.71 78.2698 907.183 82.6188C902.746 86.879 897.509 90.2073 891.474 92.6036C885.527 94.9112 879.004 96.0651 871.904 96.0651ZM871.904 84.2164C877.051 84.2164 881.8 83.3288 886.149 81.5537C890.586 79.7787 894.403 77.2935 897.598 74.0984C900.882 70.8145 903.411 66.9981 905.186 62.6491C907.05 58.3001 907.982 53.5518 907.982 48.404C907.982 43.2563 907.05 38.508 905.186 34.159C903.411 29.81 900.882 26.038 897.598 22.8428C894.403 19.5589 890.586 17.0294 886.149 15.2544C881.8 13.4793 877.051 12.5917 871.904 12.5917C866.667 12.5917 861.83 13.4793 857.392 15.2544C853.043 17.0294 849.227 19.5589 845.943 22.8428C842.659 26.038 840.085 29.81 838.221 34.159C836.446 38.508 835.559 43.2563 835.559 48.404C835.559 53.5518 836.446 58.3001 838.221 62.6491C840.085 66.9981 842.659 70.8145 845.943 74.0984C849.227 77.2935 853.043 79.7787 857.392 81.5537C861.83 83.3288 866.667 84.2164 871.904 84.2164ZM941.644 95V1.80809H952.56L1014.2 78.3586H1008.48V1.80809H1021.79V95H1010.87L949.232 18.4495H954.957V95H941.644Z" fill="url(#paint0_linear_5477_833)"/>
<defs>
<linearGradient id="paint0_linear_5477_833" x1="533.5" y1="-5.22581" x2="533.5" y2="47.0753" gradientUnits="userSpaceOnUse">
<stop stop-color="#080808"/>
<stop offset="1"/>
</linearGradient>
</defs>
</svg>
