<svg width="431" height="131" viewBox="0 0 431 131" fill="none" xmlns="http://www.w3.org/2000/svg">
<path d="M23.9775 76.745C21.7921 76.745 19.6066 76.5712 17.4211 76.2235C15.2357 75.9255 13.1744 75.4536 11.2373 74.8079C9.30018 74.1126 7.56174 73.2682 6.02199 72.2748C5.12794 71.6788 4.50707 70.9585 4.15938 70.1142C3.8117 69.2698 3.68752 68.4502 3.78686 67.6555C3.93587 66.8111 4.25872 66.0909 4.75542 65.4949C5.30178 64.8492 5.97232 64.4518 6.76703 64.3028C7.56174 64.1538 8.43096 64.3773 9.37468 64.9734C11.5601 66.2648 13.8698 67.2085 16.3036 67.8045C18.7374 68.4006 21.2954 68.6986 23.9775 68.6986C27.9014 68.6986 30.7574 68.0529 32.5455 66.7615C34.3336 65.4204 35.2277 63.7068 35.2277 61.6207C35.2277 59.8822 34.582 58.5163 33.2905 57.5229C32.0488 56.5296 29.8882 55.71 26.8087 55.0643L18.6132 53.3507C13.8946 52.3573 10.3681 50.6934 8.03361 48.3589C5.74881 45.9748 4.60641 42.8456 4.60641 38.9714C4.60641 36.5376 5.1031 34.3273 6.09649 32.3405C7.08988 30.3537 8.48063 28.6401 10.2687 27.1997C12.1065 25.7593 14.2671 24.6666 16.7506 23.9215C19.2837 23.1268 22.0652 22.7295 25.0951 22.7295C28.0752 22.7295 30.9064 23.102 33.5886 23.847C36.2707 24.5921 38.6797 25.6848 40.8155 27.1252C41.6102 27.6716 42.1317 28.3421 42.3801 29.1368C42.6781 29.9315 42.7526 30.7262 42.6036 31.521C42.4546 32.266 42.1069 32.9117 41.5605 33.4581C41.0142 34.0044 40.3188 34.3273 39.4744 34.4266C38.6797 34.526 37.7608 34.2776 36.7177 33.6816C34.88 32.6385 33.0174 31.8935 31.1299 31.4465C29.2425 30.9994 27.206 30.7759 25.0206 30.7759C22.7358 30.7759 20.7738 31.0988 19.1347 31.7445C17.4956 32.3902 16.2291 33.3091 15.335 34.5011C14.4906 35.6435 14.0684 37.0094 14.0684 38.5989C14.0684 40.387 14.6645 41.8274 15.8566 42.9201C17.0486 43.9632 19.0851 44.7827 21.9659 45.3788L30.0869 47.0924C35.0041 48.1354 38.6549 49.7745 41.039 52.0096C43.4728 54.2448 44.6897 57.2249 44.6897 60.9501C44.6897 63.3343 44.193 65.4949 43.1996 67.432C42.2559 69.3691 40.8651 71.033 39.0274 72.4238C37.2393 73.8145 35.0786 74.8824 32.5455 75.6275C30.0124 76.3725 27.1564 76.745 23.9775 76.745ZM56.5999 76.596C55.1098 76.596 53.9674 76.1987 53.1727 75.404C52.378 74.5596 51.9806 73.3675 51.9806 71.8278V27.5722C51.9806 26.0325 52.378 24.8652 53.1727 24.0705C53.9674 23.2758 55.1098 22.8785 56.5999 22.8785C58.09 22.8785 59.2324 23.2758 60.0271 24.0705C60.8715 24.8652 61.2937 26.0325 61.2937 27.5722V46.8688H60.2506C61.3433 44.2364 63.0321 42.2496 65.3169 40.9085C67.6514 39.5178 70.2838 38.8224 73.2143 38.8224C76.1448 38.8224 78.5538 39.3687 80.4413 40.4615C82.3287 41.5542 83.7443 43.2181 84.688 45.4533C85.6317 47.6387 86.1036 50.4202 86.1036 53.7977V71.8278C86.1036 73.3675 85.7062 74.5596 84.9115 75.404C84.1168 76.1987 82.9744 76.596 81.4843 76.596C79.9942 76.596 78.827 76.1987 77.9826 75.404C77.1879 74.5596 76.7906 73.3675 76.7906 71.8278V54.2448C76.7906 51.4136 76.2442 49.3523 75.1515 48.0609C74.1084 46.7695 72.4693 46.1238 70.2342 46.1238C67.5024 46.1238 65.3169 46.993 63.6778 48.7314C62.0884 50.4202 61.2937 52.6802 61.2937 55.5113V71.8278C61.2937 75.0066 59.7291 76.596 56.5999 76.596ZM107.558 76.745C104.925 76.745 102.566 76.2483 100.48 75.255C98.4435 74.2119 96.8293 72.8212 95.6372 71.0827C94.4948 69.3443 93.9236 67.3823 93.9236 65.1969C93.9236 62.5147 94.619 60.4038 96.0097 58.864C97.4005 57.2746 99.6605 56.1322 102.79 55.4368C105.919 54.7415 110.116 54.3938 115.381 54.3938H119.106V59.7581H115.455C112.376 59.7581 109.917 59.9071 108.079 60.2051C106.242 60.5031 104.925 61.0246 104.131 61.7697C103.386 62.4651 103.013 63.4585 103.013 64.7499C103.013 66.389 103.584 67.73 104.727 68.7731C105.869 69.8161 107.459 70.3377 109.495 70.3377C111.134 70.3377 112.575 69.9652 113.816 69.2201C115.108 68.4254 116.126 67.3575 116.871 66.0164C117.616 64.6754 117.988 63.1356 117.988 61.3972V52.8292C117.988 50.3457 117.442 48.5576 116.349 47.4649C115.257 46.3721 113.419 45.8258 110.836 45.8258C109.396 45.8258 107.831 45.9996 106.142 46.3473C104.503 46.695 102.765 47.291 100.927 48.1354C99.9833 48.5824 99.1389 48.7066 98.3939 48.5079C97.6985 48.3093 97.1521 47.9119 96.7548 47.3159C96.3574 46.6702 96.1588 45.9748 96.1588 45.2297C96.1588 44.4847 96.3574 43.7645 96.7548 43.0691C97.1521 42.3241 97.8227 41.7777 98.7664 41.43C101.051 40.4863 103.237 39.8158 105.323 39.4184C107.459 39.0211 109.396 38.8224 111.134 38.8224C114.71 38.8224 117.641 39.3687 119.926 40.4615C122.26 41.5542 123.999 43.2181 125.141 45.4533C126.283 47.6387 126.855 50.4699 126.855 53.9467V71.8278C126.855 73.3675 126.482 74.5596 125.737 75.404C124.992 76.1987 123.924 76.596 122.533 76.596C121.143 76.596 120.05 76.1987 119.255 75.404C118.51 74.5596 118.138 73.3675 118.138 71.8278V68.2516H118.734C118.386 69.99 117.69 71.5049 116.647 72.7963C115.654 74.0381 114.387 75.0066 112.848 75.702C111.308 76.3974 109.545 76.745 107.558 76.745ZM141.075 76.596C139.536 76.596 138.344 76.1987 137.499 75.404C136.705 74.5596 136.307 73.3675 136.307 71.8278V43.6652C136.307 42.1254 136.705 40.9582 137.499 40.1635C138.294 39.3687 139.412 38.9714 140.852 38.9714C142.292 38.9714 143.41 39.3687 144.205 40.1635C144.999 40.9582 145.397 42.1254 145.397 43.6652V48.3589H144.652C145.347 45.3788 146.713 43.1188 148.749 41.579C150.786 40.0393 153.493 39.1204 156.87 38.8224C157.913 38.723 158.733 38.9962 159.329 39.6419C159.975 40.238 160.347 41.1817 160.447 42.4731C160.546 43.7148 160.248 44.733 159.553 45.5278C158.907 46.2728 157.913 46.7198 156.572 46.8688L154.933 47.0178C151.903 47.3159 149.619 48.2596 148.079 49.849C146.539 51.3888 145.769 53.5742 145.769 56.4054V71.8278C145.769 73.3675 145.372 74.5596 144.577 75.404C143.782 76.1987 142.615 76.596 141.075 76.596ZM182.857 76.745C178.734 76.745 175.183 75.9752 172.203 74.4354C169.222 72.8957 166.913 70.7102 165.274 67.879C163.684 65.0479 162.89 61.6952 162.89 57.821C162.89 54.0461 163.659 50.7431 165.199 47.9119C166.789 45.0807 168.949 42.8704 171.681 41.281C174.463 39.6419 177.617 38.8224 181.143 38.8224C183.726 38.8224 186.036 39.2446 188.072 40.0889C190.158 40.9333 191.921 42.1502 193.362 43.7397C194.852 45.3291 195.969 47.2662 196.714 49.551C197.509 51.7861 197.907 54.3193 197.907 57.1504C197.907 58.0445 197.584 58.7398 196.938 59.2365C196.342 59.6836 195.473 59.9071 194.33 59.9071H170.414V54.5428H191.35L190.158 55.6603C190.158 53.3755 189.81 51.4633 189.115 49.9235C188.469 48.3838 187.501 47.2165 186.209 46.4218C184.968 45.5774 183.403 45.1552 181.516 45.1552C179.429 45.1552 177.641 45.6519 176.151 46.6453C174.711 47.589 173.593 48.955 172.799 50.7431C172.054 52.4815 171.681 54.5676 171.681 57.0014V57.5229C171.681 61.5958 172.625 64.6505 174.512 66.687C176.449 68.6737 179.28 69.6671 183.006 69.6671C184.297 69.6671 185.737 69.5181 187.327 69.2201C188.966 68.8724 190.506 68.3012 191.946 67.5065C192.989 66.9105 193.908 66.6621 194.703 66.7615C195.498 66.8111 196.118 67.0843 196.565 67.581C197.062 68.0777 197.36 68.6986 197.46 69.4436C197.559 70.139 197.41 70.8592 197.012 71.6042C196.665 72.3493 196.044 72.995 195.15 73.5414C193.411 74.6341 191.4 75.4536 189.115 76C186.88 76.4967 184.794 76.745 182.857 76.745ZM210.944 76.596C209.404 76.596 208.212 76.1738 207.368 75.3295C206.573 74.4354 206.176 73.2185 206.176 71.6788V27.7957C206.176 26.2063 206.573 24.9894 207.368 24.145C208.212 23.3007 209.404 22.8785 210.944 22.8785C212.484 22.8785 213.651 23.3007 214.446 24.145C215.29 24.9894 215.712 26.2063 215.712 27.7957V71.6788C215.712 73.2185 215.315 74.4354 214.52 75.3295C213.726 76.1738 212.534 76.596 210.944 76.596ZM230.928 76.596C229.438 76.596 228.296 76.1987 227.501 75.404C226.706 74.5596 226.309 73.3675 226.309 71.8278V43.6652C226.309 42.1254 226.706 40.9582 227.501 40.1635C228.296 39.3687 229.413 38.9714 230.854 38.9714C232.294 38.9714 233.412 39.3687 234.206 40.1635C235.001 40.9582 235.398 42.1254 235.398 43.6652V48.7314L234.579 46.8688C235.672 44.2364 237.36 42.2496 239.645 40.9085C241.98 39.5178 244.612 38.8224 247.543 38.8224C250.473 38.8224 252.882 39.3687 254.77 40.4615C256.657 41.5542 258.073 43.2181 259.016 45.4533C259.96 47.6387 260.432 50.4202 260.432 53.7977V71.8278C260.432 73.3675 260.035 74.5596 259.24 75.404C258.445 76.1987 257.303 76.596 255.813 76.596C254.323 76.596 253.155 76.1987 252.311 75.404C251.516 74.5596 251.119 73.3675 251.119 71.8278V54.2448C251.119 51.4136 250.573 49.3523 249.48 48.0609C248.437 46.7695 246.798 46.1238 244.562 46.1238C241.831 46.1238 239.645 46.993 238.006 48.7314C236.417 50.4202 235.622 52.6802 235.622 55.5113V71.8278C235.622 75.0066 234.057 76.596 230.928 76.596ZM277.043 76.596C275.553 76.596 274.386 76.1987 273.542 75.404C272.747 74.5596 272.35 73.3675 272.35 71.8278V46.5708H268.922C267.73 46.5708 266.811 46.2728 266.166 45.6768C265.52 45.0311 265.197 44.1618 265.197 43.0691C265.197 41.9267 265.52 41.0575 266.166 40.4615C266.811 39.8654 267.73 39.5674 268.922 39.5674H275.032L272.35 42.0261V39.4929C272.35 34.377 273.641 30.5524 276.224 28.0193C278.807 25.4364 282.532 23.9215 287.399 23.4745L289.933 23.251C290.926 23.1517 291.721 23.3255 292.317 23.7725C292.913 24.1699 293.31 24.7162 293.509 25.4116C293.708 26.0573 293.732 26.7279 293.583 27.4232C293.434 28.1186 293.111 28.7395 292.615 29.2858C292.168 29.7825 291.572 30.0557 290.827 30.1054L289.784 30.1799C286.952 30.3786 284.891 31.0988 283.6 32.3405C282.308 33.5822 281.663 35.4697 281.663 38.0028V40.7595L280.471 39.5674H287.996C289.188 39.5674 290.106 39.8654 290.752 40.4615C291.398 41.0575 291.721 41.9267 291.721 43.0691C291.721 44.1618 291.398 45.0311 290.752 45.6768C290.106 46.2728 289.188 46.5708 287.996 46.5708H281.663V71.8278C281.663 75.0066 280.123 76.596 277.043 76.596ZM312.698 76.745C308.923 76.745 305.645 75.9752 302.864 74.4354C300.082 72.8957 297.922 70.7102 296.382 67.879C294.842 64.9982 294.072 61.6207 294.072 57.7465C294.072 54.816 294.495 52.2083 295.339 49.9235C296.233 47.589 297.5 45.6023 299.139 43.9632C300.778 42.2744 302.74 41.0078 305.024 40.1635C307.309 39.2694 309.867 38.8224 312.698 38.8224C316.473 38.8224 319.751 39.5923 322.533 41.132C325.314 42.6718 327.475 44.8572 329.015 47.6884C330.555 50.5195 331.324 53.8722 331.324 57.7465C331.324 60.677 330.877 63.3094 329.983 65.6439C329.139 67.9784 327.897 69.99 326.258 71.6788C324.619 73.3178 322.657 74.5844 320.372 75.4785C318.088 76.3229 315.53 76.745 312.698 76.745ZM312.698 69.6671C314.536 69.6671 316.15 69.2201 317.541 68.3261C318.932 67.432 320 66.1158 320.745 64.3773C321.54 62.5892 321.937 60.3789 321.937 57.7465C321.937 53.7729 321.093 50.8176 319.404 48.8805C317.715 46.8937 315.48 45.9003 312.698 45.9003C310.861 45.9003 309.246 46.3473 307.856 47.2414C306.465 48.0857 305.372 49.402 304.577 51.1901C303.832 52.9285 303.46 55.114 303.46 57.7465C303.46 61.6703 304.304 64.6505 305.993 66.687C307.682 68.6737 309.917 69.6671 312.698 69.6671Z" fill="white"/>
<path d="M360.653 76.596C359.461 76.596 358.493 76.3229 357.748 75.7765C357.052 75.2301 356.63 74.5099 356.481 73.6159C356.332 72.6721 356.506 71.6291 357.003 70.4867L376.672 26.9017C377.318 25.4613 378.087 24.4431 378.982 23.847C379.925 23.2013 380.993 22.8785 382.185 22.8785C383.328 22.8785 384.346 23.2013 385.24 23.847C386.184 24.4431 386.978 25.4613 387.624 26.9017L407.368 70.4867C407.914 71.6291 408.113 72.6721 407.964 73.6159C407.815 74.5596 407.392 75.3046 406.697 75.851C406.002 76.3477 405.083 76.596 403.94 76.596C402.55 76.596 401.457 76.2732 400.662 75.6275C399.917 74.9321 399.247 73.889 398.651 72.4983L393.808 61.2482L397.831 63.8558H366.39L370.414 61.2482L365.645 72.4983C365 73.9387 364.329 74.9818 363.634 75.6275C362.938 76.2732 361.945 76.596 360.653 76.596ZM382.036 33.8306L371.606 58.6405L369.669 56.2564H394.553L392.69 58.6405L382.185 33.8306H382.036ZM420.342 76.596C418.802 76.596 417.61 76.1738 416.766 75.3295C415.971 74.4354 415.574 73.2185 415.574 71.6788V27.7957C415.574 26.2063 415.971 24.9894 416.766 24.145C417.61 23.3007 418.802 22.8785 420.342 22.8785C421.882 22.8785 423.049 23.3007 423.844 24.145C424.688 24.9894 425.11 26.2063 425.11 27.7957V71.6788C425.11 73.2185 424.713 74.4354 423.918 75.3295C423.123 76.1738 421.931 76.596 420.342 76.596Z" fill="url(#paint0_linear_5477_831)"/>
<rect x="41.3878" y="97.3878" width="348.104" height="33.2244" rx="16.6122" stroke="#353535" stroke-width="0.775556"/>
<path opacity="0.5" d="M67.4618 119.112C66.1775 119.112 65.1677 118.744 64.4325 118.009C63.6973 117.274 63.3297 116.199 63.3297 114.784V109.228H64.7257V114.728C64.7257 115.817 64.963 116.613 65.4376 117.115C65.9216 117.618 66.601 117.869 67.4758 117.869C68.3599 117.869 69.0393 117.618 69.5139 117.115C69.9979 116.613 70.2399 115.817 70.2399 114.728V109.228H71.594V114.784C71.594 116.199 71.2264 117.274 70.4911 118.009C69.7652 118.744 68.7554 119.112 67.4618 119.112ZM78.2112 111.531C78.8162 111.531 79.3466 111.648 79.8027 111.88C80.268 112.113 80.631 112.467 80.8916 112.941C81.1521 113.416 81.2824 114.016 81.2824 114.742V119H79.9423V114.896C79.9423 114.179 79.7654 113.639 79.4118 113.276C79.0674 112.913 78.5788 112.732 77.946 112.732C77.4714 112.732 77.0572 112.825 76.7036 113.011C76.3499 113.197 76.0754 113.472 75.8799 113.835C75.6938 114.198 75.6007 114.649 75.6007 115.189V119H74.2606V111.601H75.5449V113.597L75.3355 113.067C75.5774 112.583 75.9497 112.206 76.4523 111.936C76.9548 111.666 77.5412 111.531 78.2112 111.531ZM83.7626 119V108.642H85.1028V119H83.7626ZM90.8305 119.084C90.086 119.084 89.4252 118.921 88.8482 118.595C88.2712 118.269 87.8152 117.823 87.4801 117.255C87.1451 116.678 86.9776 116.027 86.9776 115.301C86.9776 114.565 87.1451 113.914 87.4801 113.346C87.8152 112.778 88.2712 112.336 88.8482 112.02C89.4252 111.694 90.086 111.531 90.8305 111.531C91.5658 111.531 92.2219 111.694 92.7989 112.02C93.3852 112.336 93.8412 112.778 94.167 113.346C94.502 113.905 94.6695 114.556 94.6695 115.301C94.6695 116.036 94.502 116.687 94.167 117.255C93.8412 117.823 93.3852 118.269 92.7989 118.595C92.2219 118.921 91.5658 119.084 90.8305 119.084ZM90.8305 117.911C91.3052 117.911 91.7286 117.804 92.1009 117.59C92.4825 117.376 92.7803 117.074 92.9943 116.683C93.2084 116.282 93.3154 115.822 93.3154 115.301C93.3154 114.77 93.2084 114.314 92.9943 113.933C92.7803 113.542 92.4825 113.239 92.1009 113.025C91.7286 112.811 91.3052 112.704 90.8305 112.704C90.3559 112.704 89.9324 112.811 89.5602 113.025C89.1879 113.239 88.8901 113.542 88.6667 113.933C88.4434 114.314 88.3317 114.77 88.3317 115.301C88.3317 115.822 88.4434 116.282 88.6667 116.683C88.8901 117.074 89.1879 117.376 89.5602 117.59C89.9324 117.804 90.3559 117.911 90.8305 117.911ZM99.7477 119.084C98.9939 119.084 98.3191 118.921 97.7235 118.595C97.1372 118.269 96.6765 117.823 96.3415 117.255C96.0064 116.687 95.8389 116.036 95.8389 115.301C95.8389 114.565 96.0064 113.914 96.3415 113.346C96.6765 112.778 97.1372 112.336 97.7235 112.02C98.3191 111.694 98.9939 111.531 99.7477 111.531C100.418 111.531 101.013 111.666 101.535 111.936C102.065 112.197 102.475 112.588 102.763 113.109L101.744 113.765C101.502 113.402 101.204 113.137 100.851 112.969C100.506 112.792 100.134 112.704 99.7337 112.704C99.2498 112.704 98.817 112.811 98.4355 113.025C98.0539 113.239 97.7514 113.542 97.5281 113.933C97.3047 114.314 97.193 114.77 97.193 115.301C97.193 115.831 97.3047 116.292 97.5281 116.683C97.7514 117.074 98.0539 117.376 98.4355 117.59C98.817 117.804 99.2498 117.911 99.7337 117.911C100.134 117.911 100.506 117.827 100.851 117.66C101.204 117.483 101.502 117.213 101.744 116.85L102.763 117.492C102.475 118.004 102.065 118.4 101.535 118.679C101.013 118.949 100.418 119.084 99.7477 119.084ZM105.492 117.213L105.52 115.496L109.777 111.601H111.397L108.13 114.812L107.404 115.426L105.492 117.213ZM104.403 119V108.642H105.743V119H104.403ZM110.057 119L107.153 115.398L108.018 114.323L111.704 119H110.057ZM118.178 116.641L118.108 114.938L123.65 109.228H125.242L120.956 113.751L120.174 114.617L118.178 116.641ZM116.949 119V109.228H118.345V119H116.949ZM123.874 119L119.867 114.337L120.802 113.304L125.507 119H123.874ZM130.602 111.531C131.207 111.531 131.738 111.648 132.194 111.88C132.659 112.113 133.022 112.467 133.282 112.941C133.543 113.416 133.673 114.016 133.673 114.742V119H132.333V114.896C132.333 114.179 132.156 113.639 131.803 113.276C131.458 112.913 130.97 112.732 130.337 112.732C129.862 112.732 129.448 112.825 129.094 113.011C128.741 113.197 128.466 113.472 128.271 113.835C128.085 114.198 127.992 114.649 127.992 115.189V119H126.651V111.601H127.936V113.597L127.726 113.067C127.968 112.583 128.341 112.206 128.843 111.936C129.346 111.666 129.932 111.531 130.602 111.531ZM139.322 119.084C138.578 119.084 137.917 118.921 137.34 118.595C136.763 118.269 136.307 117.823 135.972 117.255C135.637 116.678 135.469 116.027 135.469 115.301C135.469 114.565 135.637 113.914 135.972 113.346C136.307 112.778 136.763 112.336 137.34 112.02C137.917 111.694 138.578 111.531 139.322 111.531C140.058 111.531 140.714 111.694 141.291 112.02C141.877 112.336 142.333 112.778 142.659 113.346C142.994 113.905 143.161 114.556 143.161 115.301C143.161 116.036 142.994 116.687 142.659 117.255C142.333 117.823 141.877 118.269 141.291 118.595C140.714 118.921 140.058 119.084 139.322 119.084ZM139.322 117.911C139.797 117.911 140.221 117.804 140.593 117.59C140.974 117.376 141.272 117.074 141.486 116.683C141.7 116.282 141.807 115.822 141.807 115.301C141.807 114.77 141.7 114.314 141.486 113.933C141.272 113.542 140.974 113.239 140.593 113.025C140.221 112.811 139.797 112.704 139.322 112.704C138.848 112.704 138.424 112.811 138.052 113.025C137.68 113.239 137.382 113.542 137.159 113.933C136.935 114.314 136.824 114.77 136.824 115.301C136.824 115.822 136.935 116.282 137.159 116.683C137.382 117.074 137.68 117.376 138.052 117.59C138.424 117.804 138.848 117.911 139.322 117.911ZM146.374 119L143.624 111.601H144.894L147.337 118.302H146.737L149.278 111.601H150.408L152.893 118.302H152.307L154.806 111.601H156.006L153.242 119H151.958L149.627 112.886H150.017L147.658 119H146.374ZM157.366 119V108.642H158.706V119H157.366ZM164.56 119.084C163.769 119.084 163.071 118.921 162.466 118.595C161.87 118.269 161.405 117.823 161.07 117.255C160.744 116.687 160.581 116.036 160.581 115.301C160.581 114.565 160.739 113.914 161.056 113.346C161.381 112.778 161.824 112.336 162.382 112.02C162.95 111.694 163.587 111.531 164.294 111.531C165.011 111.531 165.644 111.69 166.193 112.006C166.742 112.322 167.17 112.769 167.477 113.346C167.794 113.914 167.952 114.579 167.952 115.342C167.952 115.398 167.947 115.463 167.938 115.538C167.938 115.612 167.933 115.682 167.924 115.747H161.628V114.784H167.226L166.682 115.119C166.691 114.644 166.593 114.221 166.388 113.849C166.184 113.476 165.9 113.188 165.537 112.983C165.183 112.769 164.769 112.662 164.294 112.662C163.829 112.662 163.415 112.769 163.052 112.983C162.689 113.188 162.405 113.481 162.2 113.863C161.996 114.235 161.893 114.663 161.893 115.147V115.37C161.893 115.864 162.005 116.306 162.228 116.697C162.461 117.078 162.782 117.376 163.192 117.59C163.601 117.804 164.071 117.911 164.602 117.911C165.039 117.911 165.435 117.837 165.788 117.688C166.151 117.539 166.468 117.315 166.737 117.018L167.477 117.883C167.142 118.274 166.724 118.572 166.221 118.777C165.728 118.981 165.174 119.084 164.56 119.084ZM172.87 119.084C172.154 119.084 171.511 118.926 170.944 118.609C170.385 118.293 169.943 117.851 169.617 117.283C169.292 116.715 169.129 116.054 169.129 115.301C169.129 114.547 169.292 113.891 169.617 113.332C169.943 112.765 170.385 112.322 170.944 112.006C171.511 111.69 172.154 111.531 172.87 111.531C173.494 111.531 174.057 111.671 174.559 111.95C175.062 112.229 175.462 112.648 175.76 113.207C176.067 113.765 176.221 114.463 176.221 115.301C176.221 116.138 176.072 116.836 175.774 117.395C175.485 117.953 175.09 118.376 174.587 118.665C174.085 118.944 173.512 119.084 172.87 119.084ZM172.982 117.911C173.447 117.911 173.866 117.804 174.238 117.59C174.62 117.376 174.918 117.074 175.132 116.683C175.355 116.282 175.467 115.822 175.467 115.301C175.467 114.77 175.355 114.314 175.132 113.933C174.918 113.542 174.62 113.239 174.238 113.025C173.866 112.811 173.447 112.704 172.982 112.704C172.507 112.704 172.084 112.811 171.711 113.025C171.339 113.239 171.041 113.542 170.818 113.933C170.595 114.314 170.483 114.77 170.483 115.301C170.483 115.822 170.595 116.282 170.818 116.683C171.041 117.074 171.339 117.376 171.711 117.59C172.084 117.804 172.507 117.911 172.982 117.911ZM175.509 119V117.004L175.592 115.287L175.453 113.57V108.642H176.793V119H175.509ZM182.567 121.792C181.888 121.792 181.227 121.694 180.585 121.499C179.952 121.313 179.436 121.043 179.035 120.689L179.678 119.656C180.022 119.954 180.445 120.187 180.948 120.354C181.451 120.531 181.976 120.619 182.525 120.619C183.4 120.619 184.042 120.415 184.452 120.005C184.861 119.596 185.066 118.972 185.066 118.134V116.571L185.206 115.105L185.136 113.625V111.601H186.406V117.995C186.406 119.298 186.081 120.256 185.429 120.871C184.778 121.485 183.824 121.792 182.567 121.792ZM182.4 118.693C181.683 118.693 181.041 118.544 180.473 118.246C179.915 117.939 179.468 117.516 179.133 116.976C178.807 116.436 178.645 115.812 178.645 115.105C178.645 114.389 178.807 113.765 179.133 113.235C179.468 112.695 179.915 112.276 180.473 111.978C181.041 111.68 181.683 111.531 182.4 111.531C183.033 111.531 183.61 111.662 184.131 111.922C184.652 112.174 185.066 112.564 185.373 113.095C185.69 113.625 185.848 114.295 185.848 115.105C185.848 115.906 185.69 116.571 185.373 117.101C185.066 117.632 184.652 118.032 184.131 118.302C183.61 118.563 183.033 118.693 182.4 118.693ZM182.553 117.52C183.047 117.52 183.484 117.418 183.866 117.213C184.247 117.008 184.545 116.725 184.759 116.362C184.982 115.999 185.094 115.58 185.094 115.105C185.094 114.631 184.982 114.212 184.759 113.849C184.545 113.486 184.247 113.207 183.866 113.011C183.484 112.806 183.047 112.704 182.553 112.704C182.06 112.704 181.618 112.806 181.227 113.011C180.846 113.207 180.543 113.486 180.32 113.849C180.106 114.212 179.999 114.631 179.999 115.105C179.999 115.58 180.106 115.999 180.32 116.362C180.543 116.725 180.846 117.008 181.227 117.213C181.618 117.418 182.06 117.52 182.553 117.52ZM192.262 119.084C191.471 119.084 190.773 118.921 190.168 118.595C189.572 118.269 189.107 117.823 188.772 117.255C188.446 116.687 188.283 116.036 188.283 115.301C188.283 114.565 188.441 113.914 188.758 113.346C189.083 112.778 189.525 112.336 190.084 112.02C190.652 111.694 191.289 111.531 191.996 111.531C192.713 111.531 193.346 111.69 193.895 112.006C194.444 112.322 194.872 112.769 195.179 113.346C195.496 113.914 195.654 114.579 195.654 115.342C195.654 115.398 195.649 115.463 195.64 115.538C195.64 115.612 195.635 115.682 195.626 115.747H189.33V114.784H194.928L194.384 115.119C194.393 114.644 194.295 114.221 194.09 113.849C193.886 113.476 193.602 113.188 193.239 112.983C192.885 112.769 192.471 112.662 191.996 112.662C191.531 112.662 191.117 112.769 190.754 112.983C190.391 113.188 190.107 113.481 189.902 113.863C189.698 114.235 189.595 114.663 189.595 115.147V115.37C189.595 115.864 189.707 116.306 189.93 116.697C190.163 117.078 190.484 117.376 190.894 117.59C191.303 117.804 191.773 117.911 192.303 117.911C192.741 117.911 193.136 117.837 193.49 117.688C193.853 117.539 194.169 117.315 194.439 117.018L195.179 117.883C194.844 118.274 194.425 118.572 193.923 118.777C193.43 118.981 192.876 119.084 192.262 119.084ZM202.827 119L200.077 111.601H201.348L203.791 118.302H203.19L205.731 111.601H206.862L209.347 118.302H208.76L211.259 111.601H212.46L209.696 119H208.411L206.08 112.886H206.471L204.112 119H202.827ZM213.82 119V111.601H215.16V119H213.82ZM214.49 110.177C214.229 110.177 214.01 110.094 213.834 109.926C213.666 109.758 213.582 109.554 213.582 109.312C213.582 109.06 213.666 108.851 213.834 108.684C214.01 108.516 214.229 108.432 214.49 108.432C214.75 108.432 214.964 108.516 215.132 108.684C215.309 108.842 215.397 109.042 215.397 109.284C215.397 109.535 215.313 109.749 215.146 109.926C214.978 110.094 214.76 110.177 214.49 110.177ZM220.259 119.084C219.515 119.084 218.938 118.884 218.528 118.483C218.119 118.083 217.914 117.511 217.914 116.766V109.982H219.254V116.711C219.254 117.111 219.352 117.418 219.547 117.632C219.752 117.846 220.041 117.953 220.413 117.953C220.832 117.953 221.181 117.837 221.46 117.604L221.879 118.567C221.674 118.744 221.427 118.874 221.139 118.958C220.86 119.042 220.566 119.084 220.259 119.084ZM216.658 112.704V111.601H221.376V112.704H216.658ZM227.45 111.531C228.055 111.531 228.585 111.648 229.041 111.88C229.506 112.113 229.869 112.467 230.13 112.941C230.391 113.416 230.521 114.016 230.521 114.742V119H229.181V114.896C229.181 114.179 229.004 113.639 228.65 113.276C228.306 112.913 227.817 112.732 227.184 112.732C226.71 112.732 226.296 112.825 225.942 113.011C225.588 113.197 225.314 113.472 225.118 113.835C224.932 114.198 224.839 114.649 224.839 115.189V119H223.499V108.642H224.839V113.597L224.574 113.067C224.816 112.583 225.188 112.206 225.691 111.936C226.193 111.666 226.78 111.531 227.45 111.531ZM236.945 119V109.228H238.341V119H236.945ZM245.022 111.531C245.627 111.531 246.158 111.648 246.614 111.88C247.079 112.113 247.442 112.467 247.703 112.941C247.963 113.416 248.094 114.016 248.094 114.742V119H246.753V114.896C246.753 114.179 246.577 113.639 246.223 113.276C245.879 112.913 245.39 112.732 244.757 112.732C244.282 112.732 243.868 112.825 243.515 113.011C243.161 113.197 242.886 113.472 242.691 113.835C242.505 114.198 242.412 114.649 242.412 115.189V119H241.072V111.601H242.356V113.597L242.147 113.067C242.389 112.583 242.761 112.206 243.263 111.936C243.766 111.666 244.352 111.531 245.022 111.531ZM253.114 119.084C252.37 119.084 251.793 118.884 251.383 118.483C250.974 118.083 250.769 117.511 250.769 116.766V109.982H252.109V116.711C252.109 117.111 252.207 117.418 252.402 117.632C252.607 117.846 252.896 117.953 253.268 117.953C253.687 117.953 254.036 117.837 254.315 117.604L254.734 118.567C254.529 118.744 254.282 118.874 253.994 118.958C253.715 119.042 253.422 119.084 253.114 119.084ZM249.513 112.704V111.601H254.231V112.704H249.513ZM259.403 119.084C258.612 119.084 257.914 118.921 257.309 118.595C256.714 118.269 256.248 117.823 255.913 117.255C255.587 116.687 255.425 116.036 255.425 115.301C255.425 114.565 255.583 113.914 255.899 113.346C256.225 112.778 256.667 112.336 257.225 112.02C257.793 111.694 258.431 111.531 259.138 111.531C259.855 111.531 260.487 111.69 261.037 112.006C261.586 112.322 262.014 112.769 262.321 113.346C262.637 113.914 262.795 114.579 262.795 115.342C262.795 115.398 262.791 115.463 262.782 115.538C262.782 115.612 262.777 115.682 262.768 115.747H256.472V114.784H262.07L261.525 115.119C261.534 114.644 261.437 114.221 261.232 113.849C261.027 113.476 260.743 113.188 260.38 112.983C260.027 112.769 259.613 112.662 259.138 112.662C258.673 112.662 258.258 112.769 257.896 112.983C257.533 113.188 257.249 113.481 257.044 113.863C256.839 114.235 256.737 114.663 256.737 115.147V115.37C256.737 115.864 256.849 116.306 257.072 116.697C257.305 117.078 257.626 117.376 258.035 117.59C258.445 117.804 258.915 117.911 259.445 117.911C259.883 117.911 260.278 117.837 260.632 117.688C260.995 117.539 261.311 117.315 261.581 117.018L262.321 117.883C261.986 118.274 261.567 118.572 261.064 118.777C260.571 118.981 260.017 119.084 259.403 119.084ZM264.656 119V108.642H265.997V119H264.656ZM268.555 119V108.642H269.896V119H268.555ZM272.454 119V111.601H273.795V119H272.454ZM273.124 110.177C272.864 110.177 272.645 110.094 272.468 109.926C272.301 109.758 272.217 109.554 272.217 109.312C272.217 109.06 272.301 108.851 272.468 108.684C272.645 108.516 272.864 108.432 273.124 108.432C273.385 108.432 273.599 108.516 273.767 108.684C273.943 108.842 274.032 109.042 274.032 109.284C274.032 109.535 273.948 109.749 273.781 109.926C273.613 110.094 273.394 110.177 273.124 110.177ZM279.592 121.792C278.913 121.792 278.252 121.694 277.61 121.499C276.977 121.313 276.46 121.043 276.06 120.689L276.702 119.656C277.047 119.954 277.47 120.187 277.973 120.354C278.475 120.531 279.001 120.619 279.55 120.619C280.425 120.619 281.067 120.415 281.477 120.005C281.886 119.596 282.091 118.972 282.091 118.134V116.571L282.231 115.105L282.161 113.625V111.601H283.431V117.995C283.431 119.298 283.105 120.256 282.454 120.871C281.802 121.485 280.848 121.792 279.592 121.792ZM279.425 118.693C278.708 118.693 278.066 118.544 277.498 118.246C276.94 117.939 276.493 117.516 276.158 116.976C275.832 116.436 275.669 115.812 275.669 115.105C275.669 114.389 275.832 113.765 276.158 113.235C276.493 112.695 276.94 112.276 277.498 111.978C278.066 111.68 278.708 111.531 279.425 111.531C280.057 111.531 280.634 111.662 281.156 111.922C281.677 112.174 282.091 112.564 282.398 113.095C282.714 113.625 282.873 114.295 282.873 115.105C282.873 115.906 282.714 116.571 282.398 117.101C282.091 117.632 281.677 118.032 281.156 118.302C280.634 118.563 280.057 118.693 279.425 118.693ZM279.578 117.52C280.071 117.52 280.509 117.418 280.89 117.213C281.272 117.008 281.57 116.725 281.784 116.362C282.007 115.999 282.119 115.58 282.119 115.105C282.119 114.631 282.007 114.212 281.784 113.849C281.57 113.486 281.272 113.207 280.89 113.011C280.509 112.806 280.071 112.704 279.578 112.704C279.085 112.704 278.643 112.806 278.252 113.011C277.87 113.207 277.568 113.486 277.345 113.849C277.13 114.212 277.023 114.631 277.023 115.105C277.023 115.58 277.13 115.999 277.345 116.362C277.568 116.725 277.87 117.008 278.252 117.213C278.643 117.418 279.085 117.52 279.578 117.52ZM289.286 119.084C288.495 119.084 287.797 118.921 287.192 118.595C286.597 118.269 286.131 117.823 285.796 117.255C285.471 116.687 285.308 116.036 285.308 115.301C285.308 114.565 285.466 113.914 285.782 113.346C286.108 112.778 286.55 112.336 287.109 112.02C287.676 111.694 288.314 111.531 289.021 111.531C289.738 111.531 290.371 111.69 290.92 112.006C291.469 112.322 291.897 112.769 292.204 113.346C292.52 113.914 292.679 114.579 292.679 115.342C292.679 115.398 292.674 115.463 292.665 115.538C292.665 115.612 292.66 115.682 292.651 115.747H286.355V114.784H291.953L291.408 115.119C291.418 114.644 291.32 114.221 291.115 113.849C290.91 113.476 290.626 113.188 290.264 112.983C289.91 112.769 289.496 112.662 289.021 112.662C288.556 112.662 288.142 112.769 287.779 112.983C287.416 113.188 287.132 113.481 286.927 113.863C286.722 114.235 286.62 114.663 286.62 115.147V115.37C286.62 115.864 286.732 116.306 286.955 116.697C287.188 117.078 287.509 117.376 287.918 117.59C288.328 117.804 288.798 117.911 289.328 117.911C289.766 117.911 290.161 117.837 290.515 117.688C290.878 117.539 291.194 117.315 291.464 117.018L292.204 117.883C291.869 118.274 291.45 118.572 290.948 118.777C290.454 118.981 289.901 119.084 289.286 119.084ZM298.49 111.531C299.095 111.531 299.626 111.648 300.082 111.88C300.547 112.113 300.91 112.467 301.171 112.941C301.431 113.416 301.561 114.016 301.561 114.742V119H300.221V114.896C300.221 114.179 300.044 113.639 299.691 113.276C299.346 112.913 298.858 112.732 298.225 112.732C297.75 112.732 297.336 112.825 296.983 113.011C296.629 113.197 296.354 113.472 296.159 113.835C295.973 114.198 295.88 114.649 295.88 115.189V119H294.54V111.601H295.824V113.597L295.614 113.067C295.856 112.583 296.229 112.206 296.731 111.936C297.234 111.666 297.82 111.531 298.49 111.531ZM306.582 119.084C305.838 119.084 305.261 118.884 304.851 118.483C304.442 118.083 304.237 117.511 304.237 116.766V109.982H305.577V116.711C305.577 117.111 305.675 117.418 305.87 117.632C306.075 117.846 306.364 117.953 306.736 117.953C307.155 117.953 307.504 117.837 307.783 117.604L308.202 118.567C307.997 118.744 307.75 118.874 307.462 118.958C307.183 119.042 306.889 119.084 306.582 119.084ZM302.981 112.704V111.601H307.699V112.704H302.981ZM313.766 119V109.228H315.162V119H313.766ZM321.843 111.531C322.448 111.531 322.979 111.648 323.435 111.88C323.9 112.113 324.263 112.467 324.524 112.941C324.784 113.416 324.914 114.016 324.914 114.742V119H323.574V114.896C323.574 114.179 323.397 113.639 323.044 113.276C322.699 112.913 322.211 112.732 321.578 112.732C321.103 112.732 320.689 112.825 320.336 113.011C319.982 113.197 319.707 113.472 319.512 113.835C319.326 114.198 319.233 114.649 319.233 115.189V119H317.893V111.601H319.177V113.597L318.967 113.067C319.209 112.583 319.582 112.206 320.084 111.936C320.587 111.666 321.173 111.531 321.843 111.531ZM329.517 119.084C328.902 119.084 328.316 119 327.758 118.832C327.208 118.665 326.776 118.46 326.459 118.218L327.018 117.157C327.334 117.371 327.725 117.553 328.19 117.702C328.656 117.851 329.13 117.925 329.614 117.925C330.238 117.925 330.685 117.837 330.954 117.66C331.234 117.483 331.373 117.236 331.373 116.92C331.373 116.687 331.289 116.506 331.122 116.376C330.954 116.245 330.731 116.148 330.452 116.082C330.182 116.017 329.88 115.961 329.544 115.915C329.209 115.859 328.874 115.794 328.539 115.719C328.204 115.636 327.897 115.524 327.618 115.384C327.339 115.235 327.115 115.035 326.948 114.784C326.78 114.523 326.697 114.179 326.697 113.751C326.697 113.304 326.822 112.913 327.074 112.578C327.325 112.243 327.678 111.987 328.135 111.811C328.6 111.624 329.149 111.531 329.782 111.531C330.266 111.531 330.754 111.592 331.248 111.713C331.75 111.825 332.16 111.987 332.476 112.201L331.904 113.262C331.569 113.039 331.22 112.886 330.857 112.802C330.494 112.718 330.131 112.676 329.768 112.676C329.182 112.676 328.744 112.774 328.456 112.969C328.167 113.155 328.023 113.397 328.023 113.695C328.023 113.946 328.107 114.142 328.274 114.282C328.451 114.412 328.674 114.514 328.944 114.589C329.223 114.663 329.531 114.728 329.866 114.784C330.201 114.831 330.536 114.896 330.871 114.98C331.206 115.054 331.508 115.161 331.778 115.301C332.057 115.44 332.281 115.636 332.448 115.887C332.625 116.138 332.713 116.473 332.713 116.892C332.713 117.339 332.583 117.725 332.323 118.051C332.062 118.376 331.694 118.632 331.22 118.819C330.745 118.995 330.177 119.084 329.517 119.084ZM334.388 119V111.601H335.728V119H334.388ZM335.058 110.177C334.798 110.177 334.579 110.094 334.402 109.926C334.235 109.758 334.151 109.554 334.151 109.312C334.151 109.06 334.235 108.851 334.402 108.684C334.579 108.516 334.798 108.432 335.058 108.432C335.319 108.432 335.533 108.516 335.701 108.684C335.877 108.842 335.966 109.042 335.966 109.284C335.966 109.535 335.882 109.749 335.714 109.926C335.547 110.094 335.328 110.177 335.058 110.177ZM341.526 121.792C340.847 121.792 340.186 121.694 339.544 121.499C338.911 121.313 338.394 121.043 337.994 120.689L338.636 119.656C338.981 119.954 339.404 120.187 339.907 120.354C340.409 120.531 340.935 120.619 341.484 120.619C342.359 120.619 343.001 120.415 343.411 120.005C343.82 119.596 344.025 118.972 344.025 118.134V116.571L344.164 115.105L344.095 113.625V111.601H345.365V117.995C345.365 119.298 345.039 120.256 344.388 120.871C343.736 121.485 342.782 121.792 341.526 121.792ZM341.358 118.693C340.642 118.693 340 118.544 339.432 118.246C338.874 117.939 338.427 117.516 338.092 116.976C337.766 116.436 337.603 115.812 337.603 115.105C337.603 114.389 337.766 113.765 338.092 113.235C338.427 112.695 338.874 112.276 339.432 111.978C340 111.68 340.642 111.531 341.358 111.531C341.991 111.531 342.568 111.662 343.089 111.922C343.611 112.174 344.025 112.564 344.332 113.095C344.648 113.625 344.807 114.295 344.807 115.105C344.807 115.906 344.648 116.571 344.332 117.101C344.025 117.632 343.611 118.032 343.089 118.302C342.568 118.563 341.991 118.693 341.358 118.693ZM341.512 117.52C342.005 117.52 342.443 117.418 342.824 117.213C343.206 117.008 343.504 116.725 343.718 116.362C343.941 115.999 344.053 115.58 344.053 115.105C344.053 114.631 343.941 114.212 343.718 113.849C343.504 113.486 343.206 113.207 342.824 113.011C342.443 112.806 342.005 112.704 341.512 112.704C341.019 112.704 340.577 112.806 340.186 113.011C339.804 113.207 339.502 113.486 339.278 113.849C339.064 114.212 338.957 114.631 338.957 115.105C338.957 115.58 339.064 115.999 339.278 116.362C339.502 116.725 339.804 117.008 340.186 117.213C340.577 117.418 341.019 117.52 341.512 117.52ZM351.876 111.531C352.481 111.531 353.012 111.648 353.468 111.88C353.933 112.113 354.296 112.467 354.557 112.941C354.817 113.416 354.948 114.016 354.948 114.742V119H353.607V114.896C353.607 114.179 353.431 113.639 353.077 113.276C352.733 112.913 352.244 112.732 351.611 112.732C351.136 112.732 350.722 112.825 350.369 113.011C350.015 113.197 349.74 113.472 349.545 113.835C349.359 114.198 349.266 114.649 349.266 115.189V119H347.926V108.642H349.266V113.597L349.001 113.067C349.243 112.583 349.615 112.206 350.117 111.936C350.62 111.666 351.206 111.531 351.876 111.531ZM359.968 119.084C359.224 119.084 358.647 118.884 358.237 118.483C357.828 118.083 357.623 117.511 357.623 116.766V109.982H358.963V116.711C358.963 117.111 359.061 117.418 359.256 117.632C359.461 117.846 359.75 117.953 360.122 117.953C360.541 117.953 360.89 117.837 361.169 117.604L361.588 118.567C361.383 118.744 361.136 118.874 360.848 118.958C360.569 119.042 360.276 119.084 359.968 119.084ZM356.367 112.704V111.601H361.085V112.704H356.367ZM365.33 119.084C364.716 119.084 364.129 119 363.571 118.832C363.022 118.665 362.589 118.46 362.273 118.218L362.831 117.157C363.148 117.371 363.538 117.553 364.004 117.702C364.469 117.851 364.944 117.925 365.428 117.925C366.051 117.925 366.498 117.837 366.768 117.66C367.047 117.483 367.187 117.236 367.187 116.92C367.187 116.687 367.103 116.506 366.935 116.376C366.768 116.245 366.544 116.148 366.265 116.082C365.995 116.017 365.693 115.961 365.358 115.915C365.023 115.859 364.688 115.794 364.353 115.719C364.018 115.636 363.711 115.524 363.431 115.384C363.152 115.235 362.929 115.035 362.761 114.784C362.594 114.523 362.51 114.179 362.51 113.751C362.51 113.304 362.636 112.913 362.887 112.578C363.138 112.243 363.492 111.987 363.948 111.811C364.413 111.624 364.962 111.531 365.595 111.531C366.079 111.531 366.568 111.592 367.061 111.713C367.564 111.825 367.973 111.987 368.289 112.201L367.717 113.262C367.382 113.039 367.033 112.886 366.67 112.802C366.307 112.718 365.944 112.676 365.581 112.676C364.995 112.676 364.558 112.774 364.269 112.969C363.98 113.155 363.836 113.397 363.836 113.695C363.836 113.946 363.92 114.142 364.088 114.282C364.264 114.412 364.488 114.514 364.758 114.589C365.037 114.663 365.344 114.728 365.679 114.784C366.014 114.831 366.349 114.896 366.684 114.98C367.019 115.054 367.322 115.161 367.591 115.301C367.871 115.44 368.094 115.636 368.262 115.887C368.438 116.138 368.527 116.473 368.527 116.892C368.527 117.339 368.397 117.725 368.136 118.051C367.875 118.376 367.508 118.632 367.033 118.819C366.558 118.995 365.991 119.084 365.33 119.084Z" fill="white"/>
<defs>
<linearGradient id="paint0_linear_5477_831" x1="343.5" y1="83" x2="446.5" y2="9.49999" gradientUnits="userSpaceOnUse">
<stop stop-color="#AFAFAF"/>
<stop offset="1" stop-color="#262626"/>
</linearGradient>
</defs>
</svg>
