<svg width="135" height="39" viewBox="0 0 135 39" fill="none" xmlns="http://www.w3.org/2000/svg">
<rect x="0.5" y="0.5" width="134" height="38" rx="9.5" fill="url(#paint0_linear_5489_1164)" stroke="url(#paint1_linear_5489_1164)"/>
<path d="M27.8781 24C27.6332 24 27.4426 23.9365 27.3065 23.8095C27.1795 23.6734 27.116 23.4828 27.116 23.2379V15.1673C27.116 14.9223 27.1795 14.7363 27.3065 14.6093C27.4426 14.4732 27.6332 14.4051 27.8781 14.4051H32.8457C33.0362 14.4051 33.1814 14.455 33.2812 14.5548C33.381 14.6456 33.4309 14.7817 33.4309 14.9631C33.4309 15.1537 33.381 15.2988 33.2812 15.3986C33.1814 15.4984 33.0362 15.5483 32.8457 15.5483H28.477V18.5561H32.5463C32.7459 18.5561 32.8911 18.606 32.9818 18.7058C33.0816 18.8056 33.1315 18.9462 33.1315 19.1277C33.1315 19.3182 33.0816 19.4634 32.9818 19.5632C32.8911 19.654 32.7459 19.6993 32.5463 19.6993H28.477V22.8568H32.8457C33.0362 22.8568 33.1814 22.9067 33.2812 23.0065C33.381 23.1063 33.4309 23.2469 33.4309 23.4284C33.4309 23.6189 33.381 23.7641 33.2812 23.8639C33.1814 23.9546 33.0362 24 32.8457 24H27.8781ZM35.212 24.0817C35.0487 24.0817 34.9126 24.0363 34.8037 23.9456C34.7039 23.8458 34.6495 23.7233 34.6404 23.5781C34.6404 23.4329 34.7039 23.2741 34.8309 23.1018L37.131 20.2301V20.9106L34.9806 18.2295C34.8355 18.0661 34.7674 17.9119 34.7765 17.7667C34.7856 17.6125 34.8445 17.49 34.9534 17.3993C35.0623 17.3085 35.1939 17.2632 35.3481 17.2632C35.5205 17.2632 35.6611 17.2949 35.77 17.3584C35.8879 17.4129 35.9968 17.5081 36.0966 17.6442L37.9067 19.9443H37.4168L39.2405 17.6442C39.3403 17.5081 39.4446 17.4129 39.5535 17.3584C39.6715 17.2949 39.8121 17.2632 39.9754 17.2632C40.1387 17.2632 40.2703 17.3131 40.3701 17.4129C40.479 17.5036 40.5334 17.6261 40.5334 17.7803C40.5425 17.9255 40.479 18.0798 40.3429 18.2431L38.1925 20.8834V20.2709L40.4926 23.1018C40.6287 23.2651 40.6922 23.4239 40.6831 23.5781C40.6831 23.7233 40.6287 23.8458 40.5198 23.9456C40.4109 24.0363 40.2748 24.0817 40.1115 24.0817C39.9482 24.0817 39.8076 24.0499 39.6896 23.9864C39.5807 23.9229 39.4719 23.8276 39.363 23.7006L37.4168 21.2508H37.8795L35.9469 23.7006C35.8471 23.8185 35.7382 23.9138 35.6203 23.9864C35.5114 24.0499 35.3753 24.0817 35.212 24.0817ZM42.9312 26.545C42.7134 26.545 42.5456 26.486 42.4276 26.3681C42.3097 26.2501 42.2507 26.0778 42.2507 25.8509V17.9573C42.2507 17.7304 42.3097 17.558 42.4276 17.4401C42.5456 17.3221 42.7089 17.2632 42.9176 17.2632C43.1353 17.2632 43.3032 17.3221 43.4211 17.4401C43.5391 17.558 43.5981 17.7304 43.5981 17.9573V19.1413L43.4483 18.8555C43.5935 18.3656 43.8793 17.9754 44.3058 17.6851C44.7322 17.3857 45.2358 17.236 45.8164 17.236C46.4062 17.236 46.9188 17.3766 47.3543 17.6579C47.7989 17.9391 48.1392 18.3338 48.3751 18.8419C48.6201 19.35 48.7425 19.9624 48.7425 20.6792C48.7425 21.3779 48.6201 21.9903 48.3751 22.5165C48.1392 23.0337 47.8035 23.4329 47.368 23.7142C46.9324 23.9864 46.4153 24.1225 45.8164 24.1225C45.2448 24.1225 44.7458 23.9773 44.3194 23.687C43.8929 23.3966 43.6071 23.011 43.462 22.5301H43.6253V25.8509C43.6253 26.0778 43.5618 26.2501 43.4347 26.3681C43.3168 26.486 43.1489 26.545 42.9312 26.545ZM45.4762 23.0609C45.8573 23.0609 46.1884 22.9702 46.4697 22.7887C46.751 22.6073 46.9687 22.3396 47.123 21.9858C47.2772 21.6319 47.3543 21.1964 47.3543 20.6792C47.3543 19.8989 47.182 19.3092 46.8372 18.91C46.5015 18.5107 46.0478 18.3111 45.4762 18.3111C45.1042 18.3111 44.773 18.4019 44.4827 18.5833C44.2014 18.7557 43.9837 19.0188 43.8294 19.3727C43.6752 19.7265 43.5981 20.162 43.5981 20.6792C43.5981 21.4504 43.7704 22.0402 44.1152 22.4485C44.46 22.8568 44.9137 23.0609 45.4762 23.0609ZM52.4283 24.1225C51.7206 24.1225 51.1853 23.9183 50.8224 23.51C50.4685 23.0927 50.2916 22.4939 50.2916 21.7136V15.004C50.2916 14.7771 50.3506 14.6047 50.4685 14.4868C50.5865 14.3688 50.7543 14.3099 50.9721 14.3099C51.1899 14.3099 51.3577 14.3688 51.4757 14.4868C51.6027 14.6047 51.6662 14.7771 51.6662 15.004V21.6319C51.6662 22.0856 51.7569 22.4258 51.9384 22.6526C52.1289 22.8704 52.4011 22.9793 52.755 22.9793C52.8366 22.9793 52.9092 22.9793 52.9727 22.9793C53.0362 22.9702 53.0998 22.9611 53.1633 22.952C53.2721 22.943 53.3493 22.9747 53.3946 23.0473C53.44 23.1108 53.4627 23.2469 53.4627 23.4556C53.4627 23.6461 53.4219 23.7959 53.3402 23.9047C53.2585 24.0045 53.127 24.068 52.9455 24.0953C52.8639 24.1043 52.7777 24.1089 52.6869 24.1089C52.5962 24.118 52.51 24.1225 52.4283 24.1225ZM57.2704 24.1225C56.599 24.1225 56.0183 23.9819 55.5284 23.7006C55.0475 23.4193 54.671 23.0201 54.3988 22.5029C54.1266 21.9858 53.9905 21.3779 53.9905 20.6792C53.9905 20.1439 54.0676 19.6676 54.2219 19.2502C54.3761 18.8328 54.5939 18.4744 54.8751 18.175C55.1655 17.8665 55.5102 17.6352 55.9095 17.4809C56.3178 17.3176 56.7714 17.236 57.2704 17.236C57.9328 17.236 58.5044 17.3766 58.9853 17.6579C59.4752 17.9391 59.8563 18.3383 60.1285 18.8555C60.4007 19.3636 60.5368 19.9715 60.5368 20.6792C60.5368 21.2055 60.4597 21.6818 60.3054 22.1082C60.1512 22.5347 59.9289 22.8976 59.6385 23.197C59.3573 23.4964 59.0125 23.7278 58.6042 23.8911C58.205 24.0454 57.7604 24.1225 57.2704 24.1225ZM57.2704 23.0609C57.6424 23.0609 57.9691 22.9702 58.2503 22.7887C58.5316 22.6073 58.7494 22.3396 58.9036 21.9858C59.0669 21.6319 59.1486 21.1964 59.1486 20.6792C59.1486 19.8989 58.9762 19.3092 58.6314 18.91C58.2866 18.5107 57.833 18.3111 57.2704 18.3111C56.8894 18.3111 56.5582 18.4019 56.2769 18.5833C55.9957 18.7557 55.7734 19.0188 55.61 19.3727C55.4558 19.7265 55.3787 20.162 55.3787 20.6792C55.3787 21.4504 55.5511 22.0402 55.8959 22.4485C56.2406 22.8568 56.6988 23.0609 57.2704 23.0609ZM62.7746 24.0953C62.5478 24.0953 62.3754 24.0363 62.2575 23.9183C62.1395 23.7913 62.0805 23.6189 62.0805 23.4012V17.9573C62.0805 17.7304 62.1395 17.558 62.2575 17.4401C62.3754 17.3221 62.5387 17.2632 62.7474 17.2632C62.9652 17.2632 63.1285 17.3221 63.2374 17.4401C63.3553 17.558 63.4143 17.7304 63.4143 17.9573V18.9508H63.2782C63.4234 18.4064 63.691 17.9936 64.0812 17.7123C64.4713 17.431 64.9703 17.2677 65.5782 17.2223C65.7416 17.2133 65.8686 17.2541 65.9593 17.3448C66.0591 17.4356 66.1136 17.5762 66.1226 17.7667C66.1408 17.9573 66.0999 18.1115 66.0001 18.2295C65.9003 18.3383 65.7461 18.4019 65.5374 18.42L65.2788 18.4472C64.6891 18.5017 64.2399 18.6877 63.9315 19.0052C63.623 19.3228 63.4687 19.7583 63.4687 20.3118V23.4012C63.4687 23.6189 63.4097 23.7913 63.2918 23.9183C63.1829 24.0363 63.0105 24.0953 62.7746 24.0953ZM70.1812 24.1225C69.4554 24.1225 68.8293 23.9864 68.3031 23.7142C67.7859 23.4329 67.3821 23.0382 67.0918 22.5301C66.8105 22.013 66.6699 21.4005 66.6699 20.6928C66.6699 20.0033 66.8105 19.3999 67.0918 18.8827C67.3731 18.3656 67.7587 17.9618 68.2486 17.6715C68.7386 17.3811 69.2966 17.236 69.9226 17.236C70.3854 17.236 70.7982 17.3131 71.1611 17.4673C71.524 17.6125 71.8325 17.8302 72.0866 18.1206C72.3497 18.4019 72.5448 18.7466 72.6718 19.1549C72.8079 19.5632 72.8759 20.0214 72.8759 20.5295C72.8759 20.6838 72.8306 20.8017 72.7398 20.8834C72.6491 20.956 72.513 20.9922 72.3315 20.9922H67.7587V20.1484H71.9505L71.7191 20.339C71.7191 19.8853 71.6511 19.4997 71.515 19.1821C71.3879 18.8646 71.1929 18.6241 70.9297 18.4608C70.6757 18.2884 70.3581 18.2022 69.9771 18.2022C69.5506 18.2022 69.1877 18.302 68.8883 18.5017C68.5979 18.7013 68.3756 18.978 68.2214 19.3319C68.0672 19.6857 67.99 20.0985 67.99 20.5703V20.652C67.99 21.4504 68.176 22.0538 68.548 22.4621C68.9291 22.8613 69.478 23.0609 70.1948 23.0609C70.467 23.0609 70.7528 23.0246 71.0522 22.952C71.3607 22.8795 71.6511 22.757 71.9233 22.5846C72.0775 22.4939 72.2136 22.453 72.3315 22.4621C72.4586 22.4712 72.5584 22.512 72.631 22.5846C72.7126 22.6572 72.7625 22.7479 72.7807 22.8568C72.7988 22.9657 72.7807 23.0791 72.7262 23.197C72.6718 23.3059 72.5765 23.4057 72.4404 23.4964C72.1319 23.7051 71.7735 23.8639 71.3653 23.9728C70.957 24.0726 70.5623 24.1225 70.1812 24.1225ZM78.7932 24.0953C78.5845 24.0953 78.4212 24.0363 78.3033 23.9183C78.1944 23.8004 78.1399 23.6371 78.1399 23.4284V14.9767C78.1399 14.759 78.1989 14.5957 78.3169 14.4868C78.4348 14.3688 78.5936 14.3099 78.7932 14.3099C78.9837 14.3099 79.1289 14.3461 79.2287 14.4187C79.3376 14.4822 79.4374 14.6002 79.5281 14.7726L83.0939 21.4278H82.672L86.2241 14.7726C86.3149 14.6002 86.4101 14.4822 86.5099 14.4187C86.6097 14.3461 86.7549 14.3099 86.9454 14.3099C87.1451 14.3099 87.2993 14.3688 87.4082 14.4868C87.5171 14.5957 87.5715 14.759 87.5715 14.9767V23.4284C87.5715 23.6371 87.5171 23.8004 87.4082 23.9183C87.3084 24.0363 87.1541 24.0953 86.9454 24.0953C86.7368 24.0953 86.578 24.0363 86.4691 23.9183C86.3602 23.8004 86.3058 23.6371 86.3058 23.4284V16.4058H86.6052L83.4477 22.2443C83.3752 22.3804 83.298 22.4802 83.2164 22.5438C83.1347 22.6073 83.0213 22.639 82.8761 22.639C82.731 22.639 82.613 22.6073 82.5223 22.5438C82.4315 22.4712 82.3499 22.3714 82.2773 22.2443L79.0926 16.3921H79.4193V23.4284C79.4193 23.6371 79.3648 23.8004 79.2559 23.9183C79.1561 24.0363 79.0019 24.0953 78.7932 24.0953ZM92.5707 24.1225C91.8993 24.1225 91.3186 23.9819 90.8287 23.7006C90.3478 23.4193 89.9713 23.0201 89.6991 22.5029C89.4269 21.9858 89.2908 21.3779 89.2908 20.6792C89.2908 20.1439 89.3679 19.6676 89.5222 19.2502C89.6764 18.8328 89.8942 18.4744 90.1754 18.175C90.4658 17.8665 90.8105 17.6352 91.2098 17.4809C91.6181 17.3176 92.0717 17.236 92.5707 17.236C93.2331 17.236 93.8047 17.3766 94.2856 17.6579C94.7755 17.9391 95.1566 18.3383 95.4288 18.8555C95.701 19.3636 95.8371 19.9715 95.8371 20.6792C95.8371 21.2055 95.76 21.6818 95.6057 22.1082C95.4515 22.5347 95.2292 22.8976 94.9388 23.197C94.6576 23.4964 94.3128 23.7278 93.9045 23.8911C93.5053 24.0454 93.0607 24.1225 92.5707 24.1225ZM92.5707 23.0609C92.9427 23.0609 93.2694 22.9702 93.5506 22.7887C93.8319 22.6073 94.0497 22.3396 94.2039 21.9858C94.3672 21.6319 94.4489 21.1964 94.4489 20.6792C94.4489 19.8989 94.2765 19.3092 93.9317 18.91C93.5869 18.5107 93.1333 18.3111 92.5707 18.3111C92.1897 18.3111 91.8585 18.4019 91.5772 18.5833C91.296 18.7557 91.0737 19.0188 90.9104 19.3727C90.7561 19.7265 90.679 20.162 90.679 20.6792C90.679 21.4504 90.8514 22.0402 91.1962 22.4485C91.5409 22.8568 91.9991 23.0609 92.5707 23.0609ZM98.0749 24.0953C97.8481 24.0953 97.6757 24.0363 97.5578 23.9183C97.4398 23.7913 97.3808 23.6189 97.3808 23.4012V17.9573C97.3808 17.7304 97.4398 17.558 97.5578 17.4401C97.6757 17.3221 97.839 17.2632 98.0477 17.2632C98.2655 17.2632 98.4288 17.3221 98.5377 17.4401C98.6556 17.558 98.7146 17.7304 98.7146 17.9573V18.9508H98.5785C98.7237 18.4064 98.9913 17.9936 99.3815 17.7123C99.7716 17.431 100.271 17.2677 100.879 17.2223C101.042 17.2133 101.169 17.2541 101.26 17.3448C101.359 17.4356 101.414 17.5762 101.423 17.7667C101.441 17.9573 101.4 18.1115 101.3 18.2295C101.201 18.3383 101.046 18.4019 100.838 18.42L100.579 18.4472C99.9894 18.5017 99.5403 18.6877 99.2318 19.0052C98.9233 19.3228 98.769 19.7583 98.769 20.3118V23.4012C98.769 23.6189 98.7101 23.7913 98.5921 23.9183C98.4832 24.0363 98.3108 24.0953 98.0749 24.0953ZM105.482 24.1225C104.756 24.1225 104.13 23.9864 103.603 23.7142C103.086 23.4329 102.682 23.0382 102.392 22.5301C102.111 22.013 101.97 21.4005 101.97 20.6928C101.97 20.0033 102.111 19.3999 102.392 18.8827C102.673 18.3656 103.059 17.9618 103.549 17.6715C104.039 17.3811 104.597 17.236 105.223 17.236C105.686 17.236 106.098 17.3131 106.461 17.4673C106.824 17.6125 107.133 17.8302 107.387 18.1206C107.65 18.4019 107.845 18.7466 107.972 19.1549C108.108 19.5632 108.176 20.0214 108.176 20.5295C108.176 20.6838 108.131 20.8017 108.04 20.8834C107.949 20.956 107.813 20.9922 107.632 20.9922H103.059V20.1484H107.251L107.019 20.339C107.019 19.8853 106.951 19.4997 106.815 19.1821C106.688 18.8646 106.493 18.6241 106.23 18.4608C105.976 18.2884 105.658 18.2022 105.277 18.2022C104.851 18.2022 104.488 18.302 104.189 18.5017C103.898 18.7013 103.676 18.978 103.522 19.3319C103.367 19.6857 103.29 20.0985 103.29 20.5703V20.652C103.29 21.4504 103.476 22.0538 103.848 22.4621C104.229 22.8613 104.778 23.0609 105.495 23.0609C105.767 23.0609 106.053 23.0246 106.353 22.952C106.661 22.8795 106.951 22.757 107.224 22.5846C107.378 22.4939 107.514 22.453 107.632 22.4621C107.759 22.4712 107.859 22.512 107.931 22.5846C108.013 22.6572 108.063 22.7479 108.081 22.8568C108.099 22.9657 108.081 23.0791 108.027 23.197C107.972 23.3059 107.877 23.4057 107.741 23.4964C107.432 23.7051 107.074 23.8639 106.666 23.9728C106.257 24.0726 105.863 24.1225 105.482 24.1225Z" fill="white"/>
<defs>
<linearGradient id="paint0_linear_5489_1164" x1="0" y1="19.5" x2="135" y2="19.5" gradientUnits="userSpaceOnUse">
<stop stop-color="#EE5702"/>
<stop offset="1" stop-color="#9B2FE4"/>
</linearGradient>
<linearGradient id="paint1_linear_5489_1164" x1="133" y1="34.5" x2="3.49999" y2="1.611e-06" gradientUnits="userSpaceOnUse">
<stop stop-color="#FFEDE3" stop-opacity="0.5"/>
<stop offset="1" stop-color="white" stop-opacity="0.3"/>
</linearGradient>
</defs>
</svg>
