<svg width="904" height="600" viewBox="0 0 904 600" fill="none" xmlns="http://www.w3.org/2000/svg">
<line x1="516" y1="4.37114e-08" x2="516" y2="597" stroke="url(#paint0_linear_33_1193)" stroke-width="2"/>
<line x1="646" y1="4.37114e-08" x2="646" y2="597" stroke="url(#paint1_linear_33_1193)" stroke-width="2"/>
<line x1="451" y1="4.37114e-08" x2="451" y2="597" stroke="url(#paint2_linear_33_1193)" stroke-width="2"/>
<line x1="581" y1="4.37114e-08" x2="581" y2="597" stroke="url(#paint3_linear_33_1193)" stroke-width="2"/>
<line x1="386" y1="4.37114e-08" x2="386" y2="597" stroke="url(#paint4_linear_33_1193)" stroke-width="2"/>
<line x1="321" y1="4.37114e-08" x2="321" y2="597" stroke="url(#paint5_linear_33_1193)" stroke-width="2"/>
<line x1="256" y1="4.37114e-08" x2="256" y2="597" stroke="url(#paint6_linear_33_1193)" stroke-width="2"/>
<line x1="79" y1="227" x2="821" y2="227" stroke="url(#paint7_linear_33_1193)" stroke-width="2"/>
<line x1="79" y1="97" x2="821" y2="97" stroke="url(#paint8_linear_33_1193)" stroke-width="2"/>
<line x1="79" y1="292" x2="821" y2="292" stroke="url(#paint9_linear_33_1193)" stroke-width="2"/>
<line x1="79" y1="162" x2="821" y2="162" stroke="url(#paint10_linear_33_1193)" stroke-width="2"/>
<line x1="79" y1="357" x2="821" y2="357" stroke="url(#paint11_linear_33_1193)" stroke-width="2"/>
<line x1="79" y1="422" x2="821" y2="422" stroke="url(#paint12_linear_33_1193)" stroke-width="2"/>
<line x1="79" y1="487" x2="821" y2="487" stroke="url(#paint13_linear_33_1193)" stroke-width="2"/>
<g opacity="0.5" filter="url(#filter0_f_33_1193)">
<ellipse cx="343.5" cy="328.5" rx="66.5" ry="52.5" fill="#A97AFA"/>
</g>
<g opacity="0.5" filter="url(#filter1_f_33_1193)">
<ellipse cx="419.5" cy="388.5" rx="66.5" ry="52.5" fill="#FDB186"/>
</g>
<g filter="url(#filter2_d_33_1193)">
<g clip-path="url(#clip0_33_1193)">
<rect x="369.5" y="212.5" width="161" height="161" rx="34.5" fill="url(#paint14_linear_33_1193)" stroke="url(#paint15_linear_33_1193)" stroke-width="3"/>
<g filter="url(#filter3_f_33_1193)">
<path d="M425.496 320.283C400.3 307.235 405.567 281.059 423.969 268.316C401.317 279.643 395.657 312.208 423.969 326.367C459.079 342.225 484.716 316.655 489.104 302.297L497.599 303.713L489.104 273.979L467.866 299.465L476.357 300.881C471.389 312.634 453.391 329.732 425.496 320.283Z" fill="#D63202"/>
<path d="M433.145 292.837C433.145 287.246 437.677 282.714 443.268 282.714C448.859 282.714 453.391 287.246 453.391 292.837V325.457H433.145V292.837Z" fill="#D63202"/>
<path d="M452.041 271.465C452.041 276.435 448.013 280.464 443.043 280.464C438.073 280.464 434.044 276.435 434.044 271.465C434.044 266.496 438.073 262.467 443.043 262.467C448.013 262.467 452.041 266.496 452.041 271.465Z" fill="#D63202"/>
</g>
<path d="M423.246 264.959L423.11 264.73C411.743 270.414 404.636 281.429 403.926 292.804C403.214 304.188 408.909 315.917 423.11 323.019L423.11 323.02L423.115 323.022C440.711 330.969 455.942 328.537 467.322 322.313C478.637 316.126 486.15 306.189 488.398 298.981L496.778 300.378L496.986 300.412L496.928 300.21L488.433 270.476L488.364 270.234L488.203 270.427L466.965 295.913L466.816 296.092L467.045 296.13L475.369 297.518C472.315 304.607 464.54 313.588 452.726 317.479V289.37C452.726 283.706 448.134 279.114 442.469 279.114C436.805 279.114 432.212 283.706 432.212 289.37V318.652C429.811 318.209 427.322 317.564 424.749 316.693C412.198 310.19 407.253 300.432 407.717 290.725C408.183 281.005 414.073 271.311 423.246 264.959ZM442.244 277.131C447.287 277.131 451.376 273.042 451.376 267.999C451.376 262.955 447.287 258.867 442.244 258.867C437.201 258.867 433.112 262.955 433.112 267.999C433.112 273.042 437.201 277.131 442.244 277.131Z" fill="url(#paint16_linear_33_1193)" stroke="white" stroke-width="0.266667"/>
</g>
</g>
<path d="M452.5 419L452.5 597" stroke="url(#paint17_linear_33_1193)" stroke-width="5" stroke-linecap="round"/>
<path d="M532 293.5H626C639.807 293.5 651 282.307 651 268.5V218C651 204.193 662.193 193 676 193H750.5" stroke="url(#paint18_linear_33_1193)" stroke-width="2" stroke-linecap="round" stroke-linejoin="round" stroke-dasharray="4 4"/>
<path d="M72 393H208.208C222.015 393 233.208 381.807 233.208 368V318C233.208 304.193 244.401 293 258.208 293H368" stroke="url(#paint19_linear_33_1193)" stroke-width="2" stroke-linecap="round" stroke-linejoin="round" stroke-dasharray="4 4"/>
<path d="M532 293H587.5C601.307 293 612.5 304.193 612.5 318L612.5 368C612.5 381.807 623.693 393 637.5 393H753" stroke="url(#paint20_linear_33_1193)" stroke-width="2" stroke-linecap="round" stroke-linejoin="round" stroke-dasharray="4 4"/>
<path d="M368 293H347.5C333.693 293 322.5 281.807 322.5 268V218C322.5 204.193 311.307 193 297.5 193H224" stroke="url(#paint21_linear_33_1193)" stroke-width="2" stroke-linecap="round" stroke-linejoin="round" stroke-dasharray="4 4"/>
<rect x="121" y="172" width="121" height="43" rx="10" fill="#414ECA"/>
<path d="M152.638 199.15C152.128 199.15 151.63 199.111 151.142 199.033C150.655 198.956 150.195 198.839 149.763 198.684C149.331 198.518 148.943 198.319 148.6 198.086C148.434 197.964 148.317 197.826 148.251 197.671C148.195 197.515 148.179 197.366 148.201 197.222C148.234 197.067 148.301 196.934 148.4 196.823C148.5 196.712 148.622 196.646 148.766 196.624C148.91 196.59 149.071 196.635 149.248 196.756C149.746 197.078 150.273 197.316 150.827 197.471C151.381 197.615 151.984 197.687 152.638 197.687C153.58 197.687 154.272 197.521 154.715 197.189C155.17 196.845 155.397 196.402 155.397 195.859C155.397 195.416 155.236 195.067 154.915 194.812C154.594 194.546 154.056 194.336 153.303 194.181L151.525 193.815C150.472 193.593 149.686 193.228 149.165 192.718C148.655 192.208 148.4 191.522 148.4 190.657C148.4 190.137 148.506 189.66 148.716 189.228C148.938 188.796 149.242 188.425 149.63 188.115C150.018 187.793 150.483 187.55 151.026 187.384C151.569 187.217 152.162 187.134 152.804 187.134C153.491 187.134 154.134 187.223 154.732 187.4C155.341 187.577 155.884 187.849 156.361 188.214C156.505 188.314 156.599 188.442 156.643 188.597C156.699 188.741 156.71 188.885 156.676 189.029C156.654 189.173 156.593 189.295 156.494 189.394C156.394 189.494 156.267 189.555 156.111 189.577C155.956 189.588 155.785 189.533 155.596 189.411C155.164 189.123 154.721 188.918 154.267 188.796C153.824 188.663 153.331 188.597 152.788 188.597C152.245 188.597 151.768 188.68 151.358 188.846C150.96 189.012 150.649 189.245 150.428 189.544C150.217 189.843 150.112 190.198 150.112 190.608C150.112 191.073 150.262 191.444 150.561 191.721C150.86 191.998 151.358 192.208 152.056 192.353L153.818 192.718C154.926 192.951 155.751 193.311 156.294 193.798C156.837 194.286 157.109 194.934 157.109 195.743C157.109 196.263 157.003 196.734 156.793 197.155C156.582 197.565 156.283 197.92 155.895 198.219C155.508 198.518 155.037 198.751 154.483 198.917C153.94 199.072 153.325 199.15 152.638 199.15ZM162.296 199.15C161.631 199.15 161.072 199.033 160.617 198.801C160.163 198.568 159.825 198.224 159.604 197.77C159.382 197.316 159.271 196.762 159.271 196.108V192.186H158.274C158.053 192.186 157.881 192.131 157.759 192.02C157.637 191.898 157.576 191.738 157.576 191.538C157.576 191.328 157.637 191.167 157.759 191.056C157.881 190.945 158.053 190.89 158.274 190.89H159.271V189.178C159.271 188.901 159.343 188.691 159.487 188.547C159.642 188.403 159.853 188.331 160.119 188.331C160.385 188.331 160.59 188.403 160.734 188.547C160.878 188.691 160.95 188.901 160.95 189.178V190.89H162.894C163.116 190.89 163.288 190.945 163.409 191.056C163.531 191.167 163.592 191.328 163.592 191.538C163.592 191.738 163.531 191.898 163.409 192.02C163.288 192.131 163.116 192.186 162.894 192.186H160.95V195.975C160.95 196.563 161.072 197.006 161.315 197.305C161.57 197.604 161.98 197.754 162.545 197.754C162.745 197.754 162.916 197.737 163.06 197.704C163.215 197.659 163.343 197.632 163.443 197.621C163.564 197.621 163.664 197.665 163.742 197.754C163.819 197.831 163.858 197.986 163.858 198.219C163.858 198.385 163.825 198.54 163.758 198.684C163.703 198.828 163.598 198.922 163.443 198.967C163.31 199.011 163.127 199.05 162.894 199.083C162.673 199.127 162.473 199.15 162.296 199.15ZM167.801 199.15C167.147 199.15 166.599 199.028 166.155 198.784C165.723 198.54 165.396 198.18 165.175 197.704C164.964 197.216 164.859 196.607 164.859 195.876V191.621C164.859 191.333 164.931 191.123 165.075 190.99C165.219 190.846 165.424 190.774 165.69 190.774C165.956 190.774 166.161 190.846 166.305 190.99C166.46 191.123 166.538 191.333 166.538 191.621V195.892C166.538 196.546 166.671 197.028 166.936 197.338C167.202 197.648 167.623 197.803 168.199 197.803C168.831 197.803 169.341 197.593 169.728 197.172C170.127 196.74 170.327 196.175 170.327 195.477V191.621C170.327 191.333 170.399 191.123 170.543 190.99C170.687 190.846 170.897 190.774 171.174 190.774C171.44 190.774 171.645 190.846 171.789 190.99C171.933 191.123 172.005 191.333 172.005 191.621V198.269C172.005 198.834 171.734 199.116 171.191 199.116C170.936 199.116 170.737 199.044 170.593 198.9C170.449 198.745 170.377 198.535 170.377 198.269V196.856L170.593 197.222C170.371 197.842 170.016 198.319 169.529 198.651C169.041 198.983 168.465 199.15 167.801 199.15ZM177.462 199.15C176.753 199.15 176.127 198.983 175.584 198.651C175.052 198.308 174.636 197.82 174.337 197.189C174.038 196.546 173.889 195.798 173.889 194.945C173.889 194.07 174.038 193.322 174.337 192.702C174.636 192.081 175.052 191.599 175.584 191.256C176.127 190.912 176.753 190.741 177.462 190.741C178.171 190.741 178.78 190.918 179.29 191.272C179.81 191.616 180.159 192.081 180.337 192.668H180.154V188.015C180.154 187.738 180.226 187.528 180.37 187.384C180.514 187.239 180.719 187.167 180.985 187.167C181.251 187.167 181.456 187.239 181.6 187.384C181.755 187.528 181.832 187.738 181.832 188.015V198.269C181.832 198.535 181.76 198.745 181.616 198.9C181.472 199.044 181.267 199.116 181.001 199.116C180.736 199.116 180.531 199.044 180.387 198.9C180.243 198.745 180.171 198.535 180.171 198.269V196.806L180.353 197.172C180.176 197.77 179.827 198.252 179.306 198.618C178.797 198.972 178.182 199.15 177.462 199.15ZM177.894 197.853C178.348 197.853 178.747 197.743 179.09 197.521C179.434 197.299 179.7 196.973 179.888 196.54C180.087 196.108 180.187 195.577 180.187 194.945C180.187 193.992 179.977 193.272 179.556 192.785C179.135 192.297 178.581 192.053 177.894 192.053C177.428 192.053 177.024 192.164 176.681 192.386C176.337 192.596 176.066 192.918 175.866 193.35C175.678 193.782 175.584 194.314 175.584 194.945C175.584 195.887 175.794 196.607 176.215 197.105C176.636 197.604 177.196 197.853 177.894 197.853ZM187.995 199.15C187.109 199.15 186.344 198.983 185.702 198.651C185.07 198.308 184.577 197.826 184.222 197.205C183.879 196.574 183.707 195.826 183.707 194.962C183.707 194.12 183.879 193.383 184.222 192.751C184.566 192.12 185.037 191.627 185.635 191.272C186.233 190.918 186.915 190.741 187.679 190.741C188.244 190.741 188.748 190.835 189.191 191.023C189.635 191.2 190.011 191.466 190.322 191.821C190.643 192.164 190.881 192.585 191.036 193.084C191.202 193.582 191.285 194.142 191.285 194.762C191.285 194.951 191.23 195.095 191.119 195.194C191.008 195.283 190.842 195.327 190.621 195.327H185.037V194.297H190.155L189.873 194.53C189.873 193.976 189.79 193.505 189.624 193.117C189.468 192.729 189.23 192.436 188.909 192.236C188.599 192.026 188.211 191.92 187.746 191.92C187.225 191.92 186.782 192.042 186.416 192.286C186.062 192.53 185.79 192.868 185.602 193.3C185.413 193.732 185.319 194.236 185.319 194.812V194.912C185.319 195.887 185.546 196.624 186.001 197.122C186.466 197.61 187.136 197.853 188.012 197.853C188.344 197.853 188.693 197.809 189.059 197.72C189.435 197.632 189.79 197.482 190.122 197.272C190.31 197.161 190.477 197.111 190.621 197.122C190.776 197.133 190.898 197.183 190.986 197.272C191.086 197.36 191.147 197.471 191.169 197.604C191.191 197.737 191.169 197.875 191.103 198.019C191.036 198.152 190.92 198.274 190.754 198.385C190.377 198.64 189.939 198.834 189.441 198.967C188.942 199.089 188.46 199.15 187.995 199.15ZM193.946 199.116C193.68 199.116 193.475 199.044 193.331 198.9C193.187 198.745 193.115 198.535 193.115 198.269V191.621C193.115 191.344 193.187 191.134 193.331 190.99C193.475 190.846 193.675 190.774 193.93 190.774C194.196 190.774 194.395 190.846 194.528 190.99C194.672 191.134 194.744 191.344 194.744 191.621V192.918L194.561 192.618C194.805 191.998 195.187 191.533 195.708 191.222C196.229 190.901 196.827 190.741 197.503 190.741C198.145 190.741 198.677 190.862 199.098 191.106C199.53 191.339 199.851 191.699 200.062 192.186C200.272 192.663 200.378 193.267 200.378 193.998V198.269C200.378 198.535 200.306 198.745 200.162 198.9C200.018 199.044 199.813 199.116 199.547 199.116C199.27 199.116 199.059 199.044 198.915 198.9C198.771 198.745 198.699 198.535 198.699 198.269V194.097C198.699 193.399 198.561 192.89 198.284 192.569C198.018 192.247 197.597 192.087 197.021 192.087C196.345 192.087 195.802 192.297 195.392 192.718C194.993 193.139 194.794 193.704 194.794 194.413V198.269C194.794 198.834 194.511 199.116 193.946 199.116ZM206.147 199.15C205.482 199.15 204.923 199.033 204.469 198.801C204.014 198.568 203.677 198.224 203.455 197.77C203.233 197.316 203.123 196.762 203.123 196.108V192.186H202.126C201.904 192.186 201.732 192.131 201.61 192.02C201.488 191.898 201.428 191.738 201.428 191.538C201.428 191.328 201.488 191.167 201.61 191.056C201.732 190.945 201.904 190.89 202.126 190.89H203.123V189.178C203.123 188.901 203.195 188.691 203.339 188.547C203.494 188.403 203.704 188.331 203.97 188.331C204.236 188.331 204.441 188.403 204.585 188.547C204.729 188.691 204.801 188.901 204.801 189.178V190.89H206.746C206.967 190.89 207.139 190.945 207.261 191.056C207.383 191.167 207.443 191.328 207.443 191.538C207.443 191.738 207.383 191.898 207.261 192.02C207.139 192.131 206.967 192.186 206.746 192.186H204.801V195.975C204.801 196.563 204.923 197.006 205.167 197.305C205.422 197.604 205.831 197.754 206.397 197.754C206.596 197.754 206.768 197.737 206.912 197.704C207.067 197.659 207.194 197.632 207.294 197.621C207.416 197.621 207.516 197.665 207.593 197.754C207.671 197.831 207.709 197.986 207.709 198.219C207.709 198.385 207.676 198.54 207.61 198.684C207.554 198.828 207.449 198.922 207.294 198.967C207.161 199.011 206.978 199.05 206.746 199.083C206.524 199.127 206.324 199.15 206.147 199.15ZM211.602 199.15C211.115 199.15 210.61 199.094 210.09 198.983C209.58 198.873 209.109 198.684 208.677 198.418C208.533 198.319 208.433 198.208 208.378 198.086C208.323 197.964 208.3 197.842 208.312 197.72C208.334 197.587 208.384 197.477 208.461 197.388C208.55 197.288 208.655 197.227 208.777 197.205C208.91 197.183 209.048 197.211 209.192 197.288C209.624 197.532 210.04 197.704 210.439 197.803C210.838 197.892 211.231 197.936 211.619 197.936C212.206 197.936 212.649 197.831 212.948 197.621C213.247 197.41 213.397 197.128 213.397 196.773C213.397 196.485 213.297 196.263 213.098 196.108C212.898 195.942 212.599 195.815 212.2 195.726L210.622 195.41C209.935 195.266 209.414 195.012 209.059 194.646C208.705 194.28 208.528 193.815 208.528 193.25C208.528 192.74 208.666 192.297 208.943 191.92C209.22 191.544 209.608 191.256 210.106 191.056C210.605 190.846 211.181 190.741 211.835 190.741C212.322 190.741 212.782 190.801 213.214 190.923C213.646 191.045 214.045 191.228 214.411 191.472C214.555 191.549 214.649 191.655 214.693 191.787C214.737 191.909 214.743 192.031 214.71 192.153C214.688 192.275 214.632 192.386 214.544 192.485C214.455 192.574 214.344 192.629 214.211 192.652C214.089 192.663 213.951 192.629 213.796 192.552C213.463 192.341 213.131 192.192 212.799 192.103C212.477 192.015 212.156 191.97 211.835 191.97C211.248 191.97 210.804 192.081 210.505 192.303C210.217 192.513 210.073 192.801 210.073 193.167C210.073 193.444 210.162 193.671 210.339 193.848C210.516 194.025 210.793 194.153 211.17 194.23L212.749 194.546C213.469 194.69 214.012 194.934 214.377 195.277C214.754 195.621 214.942 196.086 214.942 196.673C214.942 197.438 214.638 198.042 214.028 198.485C213.419 198.928 212.61 199.15 211.602 199.15Z" fill="white"/>
<rect x="726" y="169" width="129" height="43" rx="10" fill="#F94612"/>
<path d="M754.467 196.116C754.19 196.116 753.974 196.039 753.818 195.884C753.674 195.729 753.602 195.513 753.602 195.236V185.165C753.602 184.877 753.68 184.661 753.835 184.516C753.99 184.361 754.206 184.284 754.483 184.284H758.455C759.718 184.284 760.693 184.583 761.38 185.181C762.067 185.779 762.41 186.627 762.41 187.724C762.41 188.433 762.255 189.042 761.945 189.552C761.635 190.062 761.181 190.449 760.582 190.715C759.995 190.981 759.286 191.114 758.455 191.114L758.605 190.881H759.037C759.48 190.881 759.862 190.992 760.183 191.214C760.516 191.435 760.815 191.79 761.081 192.277L762.51 194.936C762.621 195.136 762.671 195.33 762.66 195.518C762.66 195.695 762.593 195.839 762.46 195.95C762.338 196.061 762.161 196.116 761.928 196.116C761.685 196.116 761.485 196.066 761.33 195.967C761.186 195.856 761.053 195.695 760.931 195.485L759.186 192.261C758.954 191.829 758.688 191.541 758.389 191.397C758.089 191.242 757.696 191.164 757.209 191.164H755.331V195.236C755.331 195.513 755.259 195.729 755.115 195.884C754.971 196.039 754.755 196.116 754.467 196.116ZM755.331 189.868H758.173C759.015 189.868 759.652 189.69 760.084 189.336C760.516 188.981 760.732 188.455 760.732 187.757C760.732 187.07 760.516 186.549 760.084 186.195C759.652 185.84 759.015 185.663 758.173 185.663H755.331V189.868ZM768.277 196.15C767.391 196.15 766.627 195.983 765.984 195.651C765.352 195.308 764.859 194.826 764.505 194.205C764.161 193.574 763.99 192.826 763.99 191.962C763.99 191.12 764.161 190.383 764.505 189.751C764.848 189.12 765.319 188.627 765.917 188.272C766.516 187.918 767.197 187.741 767.962 187.741C768.527 187.741 769.031 187.835 769.474 188.023C769.917 188.2 770.294 188.466 770.604 188.821C770.925 189.164 771.163 189.585 771.319 190.084C771.485 190.582 771.568 191.142 771.568 191.762C771.568 191.951 771.512 192.095 771.402 192.194C771.291 192.283 771.125 192.327 770.903 192.327H765.319V191.297H770.438L770.155 191.53C770.155 190.976 770.072 190.505 769.906 190.117C769.751 189.729 769.513 189.436 769.191 189.236C768.881 189.026 768.493 188.92 768.028 188.92C767.507 188.92 767.064 189.042 766.699 189.286C766.344 189.53 766.073 189.868 765.884 190.3C765.696 190.732 765.602 191.236 765.602 191.812V191.912C765.602 192.887 765.829 193.624 766.283 194.122C766.748 194.61 767.419 194.853 768.294 194.853C768.626 194.853 768.975 194.809 769.341 194.72C769.718 194.632 770.072 194.482 770.405 194.272C770.593 194.161 770.759 194.111 770.903 194.122C771.058 194.133 771.18 194.183 771.269 194.272C771.368 194.36 771.429 194.471 771.452 194.604C771.474 194.737 771.452 194.875 771.385 195.019C771.319 195.152 771.202 195.274 771.036 195.385C770.659 195.64 770.222 195.834 769.723 195.967C769.225 196.089 768.743 196.15 768.277 196.15ZM776.971 196.15C776.14 196.15 775.42 195.978 774.81 195.634C774.212 195.28 773.747 194.787 773.414 194.155C773.082 193.513 772.916 192.759 772.916 191.895C772.916 191.253 773.01 190.676 773.198 190.167C773.387 189.646 773.653 189.208 773.996 188.854C774.351 188.499 774.777 188.228 775.276 188.04C775.785 187.84 776.35 187.741 776.971 187.741C777.359 187.741 777.763 187.801 778.184 187.923C778.616 188.034 779.015 188.222 779.38 188.488C779.524 188.577 779.613 188.688 779.646 188.821C779.691 188.943 779.696 189.07 779.663 189.203C779.641 189.336 779.58 189.452 779.48 189.552C779.392 189.641 779.281 189.696 779.148 189.718C779.015 189.729 778.871 189.69 778.716 189.602C778.45 189.413 778.178 189.281 777.901 189.203C777.624 189.114 777.359 189.07 777.104 189.07C776.705 189.07 776.35 189.136 776.04 189.269C775.741 189.391 775.486 189.574 775.276 189.818C775.065 190.051 774.904 190.344 774.794 190.699C774.694 191.053 774.644 191.458 774.644 191.912C774.644 192.82 774.855 193.535 775.276 194.056C775.708 194.565 776.317 194.82 777.104 194.82C777.359 194.82 777.624 194.781 777.901 194.704C778.178 194.626 778.45 194.493 778.716 194.305C778.871 194.216 779.015 194.183 779.148 194.205C779.281 194.227 779.386 194.288 779.464 194.388C779.552 194.477 779.608 194.587 779.63 194.72C779.663 194.842 779.657 194.97 779.613 195.103C779.569 195.236 779.475 195.346 779.331 195.435C778.976 195.69 778.588 195.873 778.167 195.983C777.757 196.094 777.359 196.15 776.971 196.15ZM782.003 196.116C781.726 196.116 781.515 196.044 781.371 195.9C781.227 195.745 781.155 195.535 781.155 195.269V188.621C781.155 188.344 781.227 188.134 781.371 187.99C781.515 187.846 781.715 187.774 781.97 187.774C782.236 187.774 782.435 187.846 782.568 187.99C782.712 188.134 782.784 188.344 782.784 188.621V189.834H782.618C782.795 189.17 783.122 188.666 783.598 188.322C784.075 187.979 784.684 187.779 785.426 187.724C785.626 187.713 785.781 187.763 785.892 187.873C786.013 187.984 786.08 188.156 786.091 188.389C786.113 188.621 786.063 188.81 785.941 188.954C785.82 189.087 785.631 189.164 785.376 189.186L785.061 189.22C784.341 189.286 783.792 189.513 783.415 189.901C783.039 190.289 782.85 190.821 782.85 191.496V195.269C782.85 195.535 782.778 195.745 782.634 195.9C782.501 196.044 782.291 196.116 782.003 196.116ZM790.247 196.15C789.593 196.15 789.044 196.028 788.601 195.784C788.169 195.54 787.842 195.18 787.621 194.704C787.41 194.216 787.305 193.607 787.305 192.876V188.621C787.305 188.333 787.377 188.123 787.521 187.99C787.665 187.846 787.87 187.774 788.136 187.774C788.402 187.774 788.607 187.846 788.751 187.99C788.906 188.123 788.983 188.333 788.983 188.621V192.892C788.983 193.546 789.116 194.028 789.382 194.338C789.648 194.648 790.069 194.803 790.645 194.803C791.277 194.803 791.787 194.593 792.174 194.172C792.573 193.74 792.773 193.175 792.773 192.477V188.621C792.773 188.333 792.845 188.123 792.989 187.99C793.133 187.846 793.343 187.774 793.62 187.774C793.886 187.774 794.091 187.846 794.235 187.99C794.379 188.123 794.451 188.333 794.451 188.621V195.269C794.451 195.834 794.18 196.116 793.637 196.116C793.382 196.116 793.182 196.044 793.038 195.9C792.894 195.745 792.822 195.535 792.822 195.269V193.856L793.038 194.222C792.817 194.842 792.462 195.319 791.975 195.651C791.487 195.983 790.911 196.15 790.247 196.15ZM797.647 196.1C797.382 196.1 797.177 196.022 797.033 195.867C796.888 195.701 796.816 195.474 796.816 195.186V188.704C796.816 188.416 796.888 188.195 797.033 188.04C797.177 187.885 797.382 187.807 797.647 187.807C797.913 187.807 798.118 187.885 798.262 188.04C798.417 188.195 798.495 188.416 798.495 188.704V195.186C798.495 195.474 798.423 195.701 798.279 195.867C798.135 196.022 797.924 196.1 797.647 196.1ZM797.647 186.079C797.315 186.079 797.055 185.996 796.866 185.829C796.689 185.663 796.6 185.431 796.6 185.131C796.6 184.821 796.689 184.588 796.866 184.433C797.055 184.267 797.315 184.184 797.647 184.184C797.98 184.184 798.235 184.267 798.412 184.433C798.6 184.588 798.694 184.821 798.694 185.131C798.694 185.431 798.6 185.663 798.412 185.829C798.235 185.996 797.98 186.079 797.647 186.079ZM804.314 196.15C803.649 196.15 803.09 196.033 802.636 195.801C802.182 195.568 801.844 195.224 801.622 194.77C801.4 194.316 801.29 193.762 801.29 193.108V189.186H800.293C800.071 189.186 799.899 189.131 799.777 189.02C799.655 188.898 799.595 188.738 799.595 188.538C799.595 188.328 799.655 188.167 799.777 188.056C799.899 187.945 800.071 187.89 800.293 187.89H801.29V186.178C801.29 185.901 801.362 185.691 801.506 185.547C801.661 185.403 801.871 185.331 802.137 185.331C802.403 185.331 802.608 185.403 802.752 185.547C802.896 185.691 802.968 185.901 802.968 186.178V187.89H804.913C805.134 187.89 805.306 187.945 805.428 188.056C805.55 188.167 805.61 188.328 805.61 188.538C805.61 188.738 805.55 188.898 805.428 189.02C805.306 189.131 805.134 189.186 804.913 189.186H802.968V192.975C802.968 193.563 803.09 194.006 803.334 194.305C803.589 194.604 803.998 194.754 804.564 194.754C804.763 194.754 804.935 194.737 805.079 194.704C805.234 194.659 805.361 194.632 805.461 194.621C805.583 194.621 805.683 194.665 805.76 194.754C805.838 194.831 805.876 194.986 805.876 195.219C805.876 195.385 805.843 195.54 805.777 195.684C805.721 195.828 805.616 195.922 805.461 195.967C805.328 196.011 805.145 196.05 804.913 196.083C804.691 196.127 804.492 196.15 804.314 196.15ZM810.652 196.15C809.765 196.15 809.001 195.983 808.358 195.651C807.727 195.308 807.234 194.826 806.879 194.205C806.536 193.574 806.364 192.826 806.364 191.962C806.364 191.12 806.536 190.383 806.879 189.751C807.223 189.12 807.694 188.627 808.292 188.272C808.89 187.918 809.572 187.741 810.336 187.741C810.901 187.741 811.405 187.835 811.848 188.023C812.292 188.2 812.668 188.466 812.978 188.821C813.3 189.164 813.538 189.585 813.693 190.084C813.859 190.582 813.942 191.142 813.942 191.762C813.942 191.951 813.887 192.095 813.776 192.194C813.665 192.283 813.499 192.327 813.278 192.327H807.694V191.297H812.812L812.53 191.53C812.53 190.976 812.447 190.505 812.28 190.117C812.125 189.729 811.887 189.436 811.566 189.236C811.256 189.026 810.868 188.92 810.403 188.92C809.882 188.92 809.439 189.042 809.073 189.286C808.718 189.53 808.447 189.868 808.259 190.3C808.07 190.732 807.976 191.236 807.976 191.812V191.912C807.976 192.887 808.203 193.624 808.658 194.122C809.123 194.61 809.793 194.853 810.668 194.853C811.001 194.853 811.35 194.809 811.715 194.72C812.092 194.632 812.447 194.482 812.779 194.272C812.967 194.161 813.134 194.111 813.278 194.122C813.433 194.133 813.555 194.183 813.643 194.272C813.743 194.36 813.804 194.471 813.826 194.604C813.848 194.737 813.826 194.875 813.76 195.019C813.693 195.152 813.577 195.274 813.411 195.385C813.034 195.64 812.596 195.834 812.098 195.967C811.599 196.089 811.117 196.15 810.652 196.15ZM816.62 196.116C816.343 196.116 816.132 196.044 815.988 195.9C815.844 195.745 815.772 195.535 815.772 195.269V188.621C815.772 188.344 815.844 188.134 815.988 187.99C816.132 187.846 816.332 187.774 816.586 187.774C816.852 187.774 817.052 187.846 817.185 187.99C817.329 188.134 817.401 188.344 817.401 188.621V189.834H817.235C817.412 189.17 817.739 188.666 818.215 188.322C818.692 187.979 819.301 187.779 820.043 187.724C820.243 187.713 820.398 187.763 820.509 187.873C820.63 187.984 820.697 188.156 820.708 188.389C820.73 188.621 820.68 188.81 820.558 188.954C820.436 189.087 820.248 189.164 819.993 189.186L819.678 189.22C818.957 189.286 818.409 189.513 818.032 189.901C817.656 190.289 817.467 190.821 817.467 191.496V195.269C817.467 195.535 817.395 195.745 817.251 195.9C817.118 196.044 816.908 196.116 816.62 196.116ZM824.732 196.15C824.245 196.15 823.741 196.094 823.22 195.983C822.71 195.873 822.24 195.684 821.807 195.418C821.663 195.319 821.564 195.208 821.508 195.086C821.453 194.964 821.431 194.842 821.442 194.72C821.464 194.587 821.514 194.477 821.591 194.388C821.68 194.288 821.785 194.227 821.907 194.205C822.04 194.183 822.179 194.211 822.323 194.288C822.755 194.532 823.17 194.704 823.569 194.803C823.968 194.892 824.361 194.936 824.749 194.936C825.336 194.936 825.779 194.831 826.079 194.621C826.378 194.41 826.527 194.128 826.527 193.773C826.527 193.485 826.427 193.263 826.228 193.108C826.029 192.942 825.73 192.815 825.331 192.726L823.752 192.41C823.065 192.266 822.544 192.012 822.19 191.646C821.835 191.28 821.658 190.815 821.658 190.25C821.658 189.74 821.796 189.297 822.073 188.92C822.35 188.544 822.738 188.256 823.237 188.056C823.735 187.846 824.311 187.741 824.965 187.741C825.453 187.741 825.912 187.801 826.344 187.923C826.776 188.045 827.175 188.228 827.541 188.472C827.685 188.549 827.779 188.655 827.823 188.787C827.868 188.909 827.873 189.031 827.84 189.153C827.818 189.275 827.763 189.386 827.674 189.485C827.585 189.574 827.474 189.629 827.342 189.652C827.22 189.663 827.081 189.629 826.926 189.552C826.594 189.341 826.261 189.192 825.929 189.103C825.608 189.015 825.286 188.97 824.965 188.97C824.378 188.97 823.935 189.081 823.636 189.303C823.347 189.513 823.203 189.801 823.203 190.167C823.203 190.444 823.292 190.671 823.469 190.848C823.647 191.025 823.924 191.153 824.3 191.23L825.879 191.546C826.599 191.69 827.142 191.934 827.508 192.277C827.884 192.621 828.073 193.086 828.073 193.673C828.073 194.438 827.768 195.042 827.159 195.485C826.549 195.928 825.741 196.15 824.732 196.15Z" fill="white"/>
<rect x="700" y="372" width="115" height="43" rx="10" fill="#414ECA"/>
<path d="M728.509 399.116C728.254 399.116 728.055 399.044 727.911 398.9C727.778 398.756 727.712 398.557 727.712 398.302V387.982C727.712 387.716 727.784 387.516 727.928 387.384C728.072 387.239 728.266 387.167 728.509 387.167C728.742 387.167 728.919 387.212 729.041 387.3C729.174 387.378 729.296 387.522 729.407 387.733L733.761 395.859H733.246L737.583 387.733C737.694 387.522 737.81 387.378 737.932 387.3C738.054 387.212 738.231 387.167 738.464 387.167C738.708 387.167 738.896 387.239 739.029 387.384C739.162 387.516 739.228 387.716 739.228 387.982V398.302C739.228 398.557 739.162 398.756 739.029 398.9C738.907 399.044 738.719 399.116 738.464 399.116C738.209 399.116 738.015 399.044 737.882 398.9C737.749 398.756 737.683 398.557 737.683 398.302V389.727H738.048L734.193 396.856C734.104 397.022 734.01 397.144 733.91 397.222C733.811 397.299 733.672 397.338 733.495 397.338C733.318 397.338 733.174 397.299 733.063 397.222C732.952 397.133 732.852 397.011 732.764 396.856L728.875 389.71H729.274V398.302C729.274 398.557 729.207 398.756 729.074 398.9C728.952 399.044 728.764 399.116 728.509 399.116ZM745.615 399.15C744.729 399.15 743.965 398.983 743.322 398.651C742.69 398.308 742.197 397.826 741.843 397.205C741.499 396.574 741.328 395.826 741.328 394.962C741.328 394.12 741.499 393.383 741.843 392.751C742.186 392.12 742.657 391.627 743.255 391.272C743.854 390.918 744.535 390.741 745.3 390.741C745.865 390.741 746.369 390.835 746.812 391.023C747.255 391.2 747.632 391.466 747.942 391.821C748.263 392.164 748.501 392.585 748.657 393.084C748.823 393.582 748.906 394.142 748.906 394.762C748.906 394.951 748.85 395.095 748.74 395.194C748.629 395.283 748.463 395.327 748.241 395.327H742.657V394.297H747.776L747.493 394.53C747.493 393.976 747.41 393.505 747.244 393.117C747.089 392.729 746.851 392.436 746.529 392.236C746.219 392.026 745.831 391.92 745.366 391.92C744.845 391.92 744.402 392.042 744.037 392.286C743.682 392.53 743.411 392.868 743.222 393.3C743.034 393.732 742.94 394.236 742.94 394.812V394.912C742.94 395.887 743.167 396.624 743.621 397.122C744.086 397.61 744.757 397.853 745.632 397.853C745.964 397.853 746.313 397.809 746.679 397.72C747.056 397.632 747.41 397.482 747.743 397.272C747.931 397.161 748.097 397.111 748.241 397.122C748.396 397.133 748.518 397.183 748.607 397.272C748.706 397.36 748.767 397.471 748.79 397.604C748.812 397.737 748.79 397.875 748.723 398.019C748.657 398.152 748.54 398.274 748.374 398.385C747.997 398.64 747.56 398.834 747.061 398.967C746.563 399.089 746.081 399.15 745.615 399.15ZM751.567 399.116C751.301 399.116 751.096 399.044 750.952 398.9C750.808 398.745 750.736 398.535 750.736 398.269V391.621C750.736 391.344 750.808 391.134 750.952 390.99C751.096 390.846 751.295 390.774 751.55 390.774C751.816 390.774 752.015 390.846 752.148 390.99C752.292 391.134 752.364 391.344 752.364 391.621V392.918L752.182 392.618C752.425 391.998 752.808 391.533 753.328 391.222C753.849 390.901 754.447 390.741 755.123 390.741C755.766 390.741 756.297 390.862 756.718 391.106C757.151 391.339 757.472 391.699 757.682 392.186C757.893 392.663 757.998 393.267 757.998 393.998V398.269C757.998 398.535 757.926 398.745 757.782 398.9C757.638 399.044 757.433 399.116 757.167 399.116C756.89 399.116 756.68 399.044 756.536 398.9C756.392 398.745 756.32 398.535 756.32 398.269V394.097C756.32 393.399 756.181 392.89 755.904 392.569C755.638 392.247 755.217 392.087 754.641 392.087C753.965 392.087 753.422 392.297 753.012 392.718C752.614 393.139 752.414 393.704 752.414 394.413V398.269C752.414 398.834 752.132 399.116 751.567 399.116ZM763.768 399.15C763.103 399.15 762.543 399.033 762.089 398.801C761.635 398.568 761.297 398.224 761.075 397.77C760.854 397.316 760.743 396.762 760.743 396.108V392.186H759.746C759.524 392.186 759.353 392.131 759.231 392.02C759.109 391.898 759.048 391.738 759.048 391.538C759.048 391.328 759.109 391.167 759.231 391.056C759.353 390.945 759.524 390.89 759.746 390.89H760.743V389.178C760.743 388.901 760.815 388.691 760.959 388.547C761.114 388.403 761.325 388.331 761.591 388.331C761.857 388.331 762.061 388.403 762.205 388.547C762.35 388.691 762.422 388.901 762.422 389.178V390.89H764.366C764.588 390.89 764.759 390.945 764.881 391.056C765.003 391.167 765.064 391.328 765.064 391.538C765.064 391.738 765.003 391.898 764.881 392.02C764.759 392.131 764.588 392.186 764.366 392.186H762.422V395.975C762.422 396.563 762.543 397.006 762.787 397.305C763.042 397.604 763.452 397.754 764.017 397.754C764.216 397.754 764.388 397.737 764.532 397.704C764.687 397.659 764.815 397.632 764.914 397.621C765.036 397.621 765.136 397.665 765.213 397.754C765.291 397.831 765.33 397.986 765.33 398.219C765.33 398.385 765.297 398.54 765.23 398.684C765.175 398.828 765.069 398.922 764.914 398.967C764.781 399.011 764.599 399.05 764.366 399.083C764.144 399.127 763.945 399.15 763.768 399.15ZM769.823 399.15C769.003 399.15 768.294 398.978 767.696 398.634C767.108 398.291 766.649 397.803 766.316 397.172C765.984 396.54 765.818 395.798 765.818 394.945C765.818 394.291 765.912 393.71 766.1 393.2C766.288 392.69 766.554 392.253 766.898 391.887C767.252 391.511 767.673 391.228 768.161 391.04C768.659 390.84 769.213 390.741 769.823 390.741C770.631 390.741 771.329 390.912 771.917 391.256C772.515 391.599 772.98 392.087 773.313 392.718C773.645 393.339 773.811 394.081 773.811 394.945C773.811 395.588 773.717 396.169 773.529 396.69C773.34 397.211 773.069 397.654 772.714 398.019C772.371 398.385 771.95 398.668 771.451 398.867C770.964 399.055 770.421 399.15 769.823 399.15ZM769.823 397.853C770.277 397.853 770.676 397.743 771.019 397.521C771.363 397.299 771.629 396.973 771.817 396.54C772.016 396.108 772.116 395.577 772.116 394.945C772.116 393.992 771.906 393.272 771.485 392.785C771.064 392.297 770.51 392.053 769.823 392.053C769.357 392.053 768.953 392.164 768.61 392.386C768.266 392.596 767.995 392.918 767.795 393.35C767.607 393.782 767.513 394.314 767.513 394.945C767.513 395.887 767.723 396.607 768.144 397.105C768.565 397.604 769.125 397.853 769.823 397.853ZM776.544 399.116C776.267 399.116 776.056 399.044 775.912 398.9C775.768 398.745 775.696 398.535 775.696 398.269V391.621C775.696 391.344 775.768 391.134 775.912 390.99C776.056 390.846 776.256 390.774 776.511 390.774C776.776 390.774 776.976 390.846 777.109 390.99C777.253 391.134 777.325 391.344 777.325 391.621V392.834H777.159C777.336 392.17 777.663 391.666 778.139 391.322C778.616 390.979 779.225 390.779 779.967 390.724C780.167 390.713 780.322 390.763 780.433 390.873C780.554 390.984 780.621 391.156 780.632 391.389C780.654 391.621 780.604 391.81 780.482 391.954C780.361 392.087 780.172 392.164 779.917 392.186L779.602 392.22C778.881 392.286 778.333 392.513 777.956 392.901C777.58 393.289 777.391 393.821 777.391 394.496V398.269C777.391 398.535 777.319 398.745 777.175 398.9C777.042 399.044 776.832 399.116 776.544 399.116ZM784.656 399.15C784.169 399.15 783.665 399.094 783.144 398.983C782.635 398.873 782.164 398.684 781.732 398.418C781.588 398.319 781.488 398.208 781.432 398.086C781.377 397.964 781.355 397.842 781.366 397.72C781.388 397.587 781.438 397.477 781.516 397.388C781.604 397.288 781.709 397.227 781.831 397.205C781.964 397.183 782.103 397.211 782.247 397.288C782.679 397.532 783.094 397.704 783.493 397.803C783.892 397.892 784.285 397.936 784.673 397.936C785.26 397.936 785.703 397.831 786.003 397.621C786.302 397.41 786.451 397.128 786.451 396.773C786.451 396.485 786.352 396.263 786.152 396.108C785.953 395.942 785.654 395.815 785.255 395.726L783.676 395.41C782.989 395.266 782.468 395.012 782.114 394.646C781.759 394.28 781.582 393.815 781.582 393.25C781.582 392.74 781.72 392.297 781.997 391.92C782.274 391.544 782.662 391.256 783.161 391.056C783.659 390.846 784.235 390.741 784.889 390.741C785.377 390.741 785.836 390.801 786.268 390.923C786.701 391.045 787.099 391.228 787.465 391.472C787.609 391.549 787.703 391.655 787.748 391.787C787.792 391.909 787.797 392.031 787.764 392.153C787.742 392.275 787.687 392.386 787.598 392.485C787.509 392.574 787.399 392.629 787.266 392.652C787.144 392.663 787.005 392.629 786.85 392.552C786.518 392.341 786.185 392.192 785.853 392.103C785.532 392.015 785.21 391.97 784.889 391.97C784.302 391.97 783.859 392.081 783.56 392.303C783.272 392.513 783.128 392.801 783.128 393.167C783.128 393.444 783.216 393.671 783.393 393.848C783.571 394.025 783.848 394.153 784.224 394.23L785.803 394.546C786.523 394.69 787.066 394.934 787.432 395.277C787.808 395.621 787.997 396.086 787.997 396.673C787.997 397.438 787.692 398.042 787.083 398.485C786.473 398.928 785.665 399.15 784.656 399.15Z" fill="white"/>
<rect y="372" width="114" height="43" rx="10" fill="#F94612"/>
<path d="M32.8112 399.15C31.6257 399.15 30.612 398.906 29.77 398.418C28.928 397.931 28.2798 397.238 27.8256 396.341C27.3824 395.433 27.1609 394.363 27.1609 393.134C27.1609 392.214 27.2883 391.389 27.5431 390.657C27.7979 389.915 28.1635 389.284 28.6399 388.763C29.1274 388.231 29.7201 387.827 30.4181 387.55C31.1272 387.273 31.9249 387.134 32.8112 387.134C33.4649 387.134 34.0909 387.223 34.6891 387.4C35.2985 387.577 35.8247 387.832 36.2679 388.165C36.4563 388.286 36.5781 388.436 36.6335 388.613C36.7 388.779 36.7111 388.94 36.6668 389.095C36.6335 389.25 36.5615 389.383 36.4507 389.494C36.3399 389.594 36.1959 389.649 36.0186 389.66C35.8524 389.671 35.6696 389.61 35.4702 389.477C35.1046 389.201 34.7002 388.996 34.257 388.863C33.8139 388.73 33.3486 388.663 32.8611 388.663C32.0191 388.663 31.31 388.84 30.7339 389.195C30.1578 389.538 29.7201 390.043 29.421 390.707C29.1219 391.372 28.9723 392.181 28.9723 393.134C28.9723 394.086 29.1219 394.901 29.421 395.577C29.7201 396.241 30.1578 396.751 30.7339 397.105C31.31 397.449 32.0191 397.621 32.8611 397.621C33.3486 397.621 33.8139 397.554 34.257 397.421C34.7113 397.277 35.1378 397.067 35.5367 396.79C35.7361 396.668 35.9134 396.612 36.0685 396.624C36.2347 396.635 36.3732 396.69 36.4839 396.79C36.5947 396.889 36.6668 397.017 36.7 397.172C36.7443 397.316 36.7388 397.471 36.6834 397.637C36.6391 397.792 36.5338 397.925 36.3676 398.036C35.9134 398.402 35.376 398.679 34.7556 398.867C34.1352 399.055 33.487 399.15 32.8112 399.15ZM40.9241 399.15C40.3591 399.15 39.8495 399.039 39.3952 398.817C38.952 398.596 38.603 398.296 38.3482 397.92C38.0934 397.543 37.966 397.117 37.966 396.64C37.966 396.042 38.1156 395.571 38.4147 395.228C38.7249 394.873 39.229 394.624 39.927 394.48C40.6361 394.325 41.5889 394.247 42.7854 394.247H43.5665V395.277H42.802C42.0043 395.277 41.3728 395.316 40.9075 395.394C40.4422 395.471 40.1098 395.604 39.9104 395.793C39.722 395.97 39.6279 396.219 39.6279 396.54C39.6279 396.961 39.7719 397.305 40.06 397.571C40.348 397.826 40.7469 397.953 41.2565 397.953C41.6664 397.953 42.0265 397.859 42.3367 397.671C42.6469 397.471 42.8907 397.205 43.0679 396.873C43.2563 396.54 43.3505 396.158 43.3505 395.726V393.815C43.3505 393.183 43.2175 392.729 42.9516 392.452C42.6857 392.175 42.2481 392.037 41.6387 392.037C41.2842 392.037 40.9131 392.081 40.5253 392.17C40.1486 392.258 39.7553 392.408 39.3454 392.618C39.157 392.707 38.9964 392.735 38.8634 392.702C38.7305 392.668 38.6252 392.596 38.5477 392.485C38.4701 392.364 38.4258 392.236 38.4147 392.103C38.4147 391.959 38.4479 391.821 38.5144 391.688C38.592 391.555 38.7194 391.455 38.8966 391.389C39.3841 391.156 39.8661 390.99 40.3425 390.89C40.8189 390.79 41.2676 390.741 41.6886 390.741C42.4309 390.741 43.0402 390.857 43.5166 391.089C44.0041 391.322 44.3642 391.677 44.5969 392.153C44.8295 392.629 44.9459 393.244 44.9459 393.998V398.269C44.9459 398.535 44.8794 398.745 44.7464 398.9C44.6135 399.044 44.4196 399.116 44.1648 399.116C43.921 399.116 43.7272 399.044 43.5831 398.9C43.4391 398.745 43.3671 398.535 43.3671 398.269V397.189H43.5166C43.428 397.598 43.2618 397.953 43.0181 398.252C42.7854 398.54 42.4918 398.762 42.1373 398.917C41.7828 399.072 41.3784 399.15 40.9241 399.15ZM48.1218 399.116C47.8559 399.116 47.651 399.044 47.507 398.9C47.3629 398.745 47.2909 398.535 47.2909 398.269V391.621C47.2909 391.344 47.3629 391.134 47.507 390.99C47.651 390.846 47.8504 390.774 48.1052 390.774C48.3711 390.774 48.5706 390.846 48.7035 390.99C48.8475 391.134 48.9195 391.344 48.9195 391.621V392.984L48.7367 392.618C48.9583 392.031 49.3018 391.571 49.7671 391.239C50.2324 390.907 50.7919 390.741 51.4456 390.741C52.1214 390.741 52.6698 390.901 53.0908 391.222C53.5118 391.544 53.7999 392.037 53.955 392.702H53.7224C53.9329 392.092 54.2929 391.616 54.8026 391.272C55.3122 390.918 55.9049 390.741 56.5808 390.741C57.2012 390.741 57.7108 390.862 58.1097 391.106C58.5085 391.339 58.8077 391.699 59.0071 392.186C59.2065 392.663 59.3062 393.267 59.3062 393.998V398.269C59.3062 398.535 59.2287 398.745 59.0736 398.9C58.9295 399.044 58.7246 399.116 58.4587 399.116C58.1928 399.116 57.9878 399.044 57.8438 398.9C57.6998 398.745 57.6277 398.535 57.6277 398.269V394.081C57.6277 393.394 57.5059 392.89 57.2621 392.569C57.0295 392.247 56.6417 392.087 56.0988 392.087C55.4895 392.087 55.0075 392.297 54.653 392.718C54.2985 393.139 54.1212 393.721 54.1212 394.463V398.269C54.1212 398.535 54.0492 398.745 53.9052 398.9C53.7611 399.044 53.5562 399.116 53.2903 399.116C53.0244 399.116 52.8139 399.044 52.6588 398.9C52.5147 398.745 52.4427 398.535 52.4427 398.269V394.081C52.4427 393.394 52.3264 392.89 52.0937 392.569C51.8611 392.247 51.4733 392.087 50.9304 392.087C50.3211 392.087 49.8391 392.297 49.4846 392.718C49.1411 393.139 48.9694 393.721 48.9694 394.463V398.269C48.9694 398.834 48.6869 399.116 48.1218 399.116ZM62.4839 402.108C62.218 402.108 62.0131 402.036 61.869 401.892C61.725 401.748 61.653 401.537 61.653 401.26V391.621C61.653 391.344 61.725 391.134 61.869 390.99C62.0131 390.846 62.2125 390.774 62.4673 390.774C62.7332 390.774 62.9382 390.846 63.0822 390.99C63.2262 391.134 63.2982 391.344 63.2982 391.621V393.067L63.1154 392.718C63.2927 392.12 63.6417 391.643 64.1624 391.289C64.6831 390.923 65.298 390.741 66.0071 390.741C66.7272 390.741 67.3532 390.912 67.885 391.256C68.4279 391.599 68.8433 392.081 69.1314 392.702C69.4305 393.322 69.5801 394.07 69.5801 394.945C69.5801 395.798 69.4305 396.546 69.1314 397.189C68.8433 397.82 68.4334 398.308 67.9016 398.651C67.3698 398.983 66.7383 399.15 66.0071 399.15C65.3091 399.15 64.6997 398.972 64.179 398.618C63.6583 398.263 63.3093 397.792 63.132 397.205H63.3315V401.26C63.3315 401.537 63.2539 401.748 63.0988 401.892C62.9548 402.036 62.7498 402.108 62.4839 402.108ZM65.5916 397.853C66.0569 397.853 66.4613 397.743 66.8048 397.521C67.1482 397.299 67.4141 396.973 67.6025 396.54C67.7908 396.108 67.885 395.577 67.885 394.945C67.885 393.992 67.6745 393.272 67.2535 392.785C66.8436 392.297 66.2896 392.053 65.5916 392.053C65.1374 392.053 64.733 392.164 64.3784 392.386C64.035 392.596 63.7691 392.918 63.5808 393.35C63.3924 393.782 63.2982 394.314 63.2982 394.945C63.2982 395.887 63.5087 396.607 63.9297 397.105C64.3508 397.604 64.9047 397.853 65.5916 397.853ZM74.3633 399.15C73.7096 399.15 73.1612 399.028 72.718 398.784C72.286 398.54 71.9591 398.18 71.7375 397.704C71.527 397.216 71.4218 396.607 71.4218 395.876V391.621C71.4218 391.333 71.4938 391.123 71.6378 390.99C71.7819 390.846 71.9868 390.774 72.2527 390.774C72.5186 390.774 72.7236 390.846 72.8676 390.99C73.0227 391.123 73.1003 391.333 73.1003 391.621V395.892C73.1003 396.546 73.2332 397.028 73.4991 397.338C73.765 397.648 74.186 397.803 74.7621 397.803C75.3937 397.803 75.9033 397.593 76.2911 397.172C76.6899 396.74 76.8893 396.175 76.8893 395.477V391.621C76.8893 391.333 76.9614 391.123 77.1054 390.99C77.2494 390.846 77.4599 390.774 77.7369 390.774C78.0028 390.774 78.2078 390.846 78.3518 390.99C78.4958 391.123 78.5678 391.333 78.5678 391.621V398.269C78.5678 398.834 78.2964 399.116 77.7535 399.116C77.4987 399.116 77.2993 399.044 77.1552 398.9C77.0112 398.745 76.9392 398.535 76.9392 398.269V396.856L77.1552 397.222C76.9337 397.842 76.5791 398.319 76.0916 398.651C75.6042 398.983 75.028 399.15 74.3633 399.15ZM83.7751 399.15C83.2876 399.15 82.7835 399.094 82.2628 398.983C81.7531 398.873 81.2823 398.684 80.8502 398.418C80.7061 398.319 80.6064 398.208 80.551 398.086C80.4956 397.964 80.4735 397.842 80.4846 397.72C80.5067 397.587 80.5566 397.477 80.6341 397.388C80.7228 397.288 80.828 397.227 80.9499 397.205C81.0828 397.183 81.2213 397.211 81.3654 397.288C81.7974 397.532 82.2129 397.704 82.6118 397.803C83.0106 397.892 83.4039 397.936 83.7917 397.936C84.3789 397.936 84.822 397.831 85.1212 397.621C85.4203 397.41 85.5699 397.128 85.5699 396.773C85.5699 396.485 85.4702 396.263 85.2708 396.108C85.0713 395.942 84.7722 395.815 84.3733 395.726L82.7946 395.41C82.1077 395.266 81.5869 395.012 81.2324 394.646C80.8779 394.28 80.7006 393.815 80.7006 393.25C80.7006 392.74 80.8391 392.297 81.1161 391.92C81.3931 391.544 81.7808 391.256 82.2794 391.056C82.7779 390.846 83.3541 390.741 84.0077 390.741C84.4952 390.741 84.955 390.801 85.3871 390.923C85.8192 391.045 86.218 391.228 86.5836 391.472C86.7277 391.549 86.8218 391.655 86.8661 391.787C86.9105 391.909 86.916 392.031 86.8828 392.153C86.8606 392.275 86.8052 392.386 86.7166 392.485C86.6279 392.574 86.5172 392.629 86.3842 392.652C86.2623 392.663 86.1238 392.629 85.9687 392.552C85.6364 392.341 85.304 392.192 84.9716 392.103C84.6503 392.015 84.329 391.97 84.0077 391.97C83.4205 391.97 82.9774 392.081 82.6782 392.303C82.3902 392.513 82.2461 392.801 82.2461 393.167C82.2461 393.444 82.3348 393.671 82.512 393.848C82.6893 394.025 82.9663 394.153 83.343 394.23L84.9218 394.546C85.6419 394.69 86.1848 394.934 86.5504 395.277C86.9271 395.621 87.1154 396.086 87.1154 396.673C87.1154 397.438 86.8108 398.042 86.2014 398.485C85.592 398.928 84.7833 399.15 83.7751 399.15Z" fill="white"/>
<path d="M178.834 273.25L158 264.917L137.167 273.25L158 281.583L178.834 273.25ZM178.834 273.25V285.75M145.5 276.583V287.833C145.5 289.491 146.817 291.081 149.161 292.253C151.506 293.425 154.685 294.083 158 294.083C161.316 294.083 164.495 293.425 166.839 292.253C169.183 291.081 170.5 289.491 170.5 287.833V276.583" stroke="url(#paint22_linear_33_1193)" stroke-opacity="0.5" stroke-width="2" stroke-linecap="round" stroke-linejoin="round"/>
<path d="M594.667 183.583V179.417C594.667 178.312 595.106 177.252 595.887 176.47C596.668 175.689 597.728 175.25 598.833 175.25H607.167C608.272 175.25 609.332 175.689 610.113 176.47C610.894 177.252 611.333 178.312 611.333 179.417V183.583M603 194V194.021M584.25 196.083C590.066 199.014 596.488 200.54 603 200.54C609.512 200.54 615.934 199.014 621.75 196.083M584.25 187.75C584.25 186.645 584.689 185.585 585.47 184.804C586.252 184.022 587.312 183.583 588.417 183.583H617.583C618.688 183.583 619.748 184.022 620.53 184.804C621.311 185.585 621.75 186.645 621.75 187.75V206.5C621.75 207.605 621.311 208.665 620.53 209.446C619.748 210.228 618.688 210.667 617.583 210.667H588.417C587.312 210.667 586.252 210.228 585.47 209.446C584.689 208.665 584.25 207.605 584.25 206.5V187.75Z" stroke="url(#paint23_linear_33_1193)" stroke-opacity="0.5" stroke-width="2" stroke-linecap="round" stroke-linejoin="round"/>
<path d="M724.25 314.5H726.333M743 295.75V297.833M759.667 314.5H761.75M729.667 301.167L731.125 302.625M756.333 301.167L754.875 302.625M738.209 324.917H747.792M736.75 322.833C735.001 321.522 733.709 319.693 733.057 317.606C732.405 315.519 732.427 313.28 733.118 311.206C733.809 309.132 735.136 307.328 736.909 306.05C738.683 304.771 740.814 304.083 743 304.083C745.186 304.083 747.317 304.771 749.091 306.05C750.864 307.328 752.191 309.132 752.882 311.206C753.573 313.28 753.595 315.519 752.943 317.606C752.291 319.693 750.999 321.522 749.25 322.833C748.437 323.639 747.824 324.624 747.462 325.71C747.1 326.795 746.999 327.951 747.167 329.083C747.167 330.188 746.728 331.248 745.946 332.03C745.165 332.811 744.105 333.25 743 333.25C741.895 333.25 740.835 332.811 740.054 332.03C739.272 331.248 738.833 330.188 738.833 329.083C739.001 327.951 738.9 326.795 738.538 325.71C738.176 324.624 737.563 323.639 736.75 322.833Z" stroke="url(#paint24_linear_33_1193)" stroke-opacity="0.5" stroke-width="2" stroke-linecap="round" stroke-linejoin="round"/>
<path d="M285.25 443.25H322.75M297.75 416.167H299.833M297.75 424.5H299.833M297.75 432.833H299.833M308.167 416.167H310.25M308.167 424.5H310.25M308.167 432.833H310.25M289.417 443.25V409.917C289.417 408.812 289.856 407.752 290.637 406.97C291.418 406.189 292.478 405.75 293.583 405.75H314.417C315.522 405.75 316.582 406.189 317.363 406.97C318.144 407.752 318.583 408.812 318.583 409.917V443.25" stroke="url(#paint25_linear_33_1193)" stroke-opacity="0.5" stroke-width="2" stroke-linecap="round" stroke-linejoin="round"/>
<defs>
<filter id="filter0_f_33_1193" x="148.2" y="147.2" width="390.6" height="362.6" filterUnits="userSpaceOnUse" color-interpolation-filters="sRGB">
<feFlood flood-opacity="0" result="BackgroundImageFix"/>
<feBlend mode="normal" in="SourceGraphic" in2="BackgroundImageFix" result="shape"/>
<feGaussianBlur stdDeviation="64.4" result="effect1_foregroundBlur_33_1193"/>
</filter>
<filter id="filter1_f_33_1193" x="224.2" y="207.2" width="390.6" height="362.6" filterUnits="userSpaceOnUse" color-interpolation-filters="sRGB">
<feFlood flood-opacity="0" result="BackgroundImageFix"/>
<feBlend mode="normal" in="SourceGraphic" in2="BackgroundImageFix" result="shape"/>
<feGaussianBlur stdDeviation="64.4" result="effect1_foregroundBlur_33_1193"/>
</filter>
<filter id="filter2_d_33_1193" x="313.9" y="195.9" width="272.2" height="272.2" filterUnits="userSpaceOnUse" color-interpolation-filters="sRGB">
<feFlood flood-opacity="0" result="BackgroundImageFix"/>
<feColorMatrix in="SourceAlpha" type="matrix" values="0 0 0 0 0 0 0 0 0 0 0 0 0 0 0 0 0 0 127 0" result="hardAlpha"/>
<feOffset dy="39"/>
<feGaussianBlur stdDeviation="27.05"/>
<feComposite in2="hardAlpha" operator="out"/>
<feColorMatrix type="matrix" values="0 0 0 0 0 0 0 0 0 0 0 0 0 0 0 0 0 0 0.6 0"/>
<feBlend mode="normal" in2="BackgroundImageFix" result="effect1_dropShadow_33_1193"/>
<feBlend mode="normal" in="SourceGraphic" in2="effect1_dropShadow_33_1193" result="shape"/>
</filter>
<filter id="filter3_f_33_1193" x="399.625" y="257.293" width="103.146" height="79.2593" filterUnits="userSpaceOnUse" color-interpolation-filters="sRGB">
<feFlood flood-opacity="0" result="BackgroundImageFix"/>
<feBlend mode="normal" in="SourceGraphic" in2="BackgroundImageFix" result="shape"/>
<feGaussianBlur stdDeviation="2.58667" result="effect1_foregroundBlur_33_1193"/>
</filter>
<linearGradient id="paint0_linear_33_1193" x1="514.5" y1="-2.18557e-08" x2="514.5" y2="597" gradientUnits="userSpaceOnUse">
<stop stop-color="#131313" stop-opacity="0"/>
<stop offset="0.555" stop-color="#131313"/>
<stop offset="1" stop-color="#131313" stop-opacity="0"/>
</linearGradient>
<linearGradient id="paint1_linear_33_1193" x1="644.5" y1="-2.18557e-08" x2="644.5" y2="597" gradientUnits="userSpaceOnUse">
<stop stop-color="#131313" stop-opacity="0"/>
<stop offset="0.555" stop-color="#131313"/>
<stop offset="1" stop-color="#131313" stop-opacity="0"/>
</linearGradient>
<linearGradient id="paint2_linear_33_1193" x1="449.5" y1="-2.18557e-08" x2="449.5" y2="597" gradientUnits="userSpaceOnUse">
<stop stop-color="#131313" stop-opacity="0"/>
<stop offset="0.555" stop-color="#131313"/>
<stop offset="1" stop-color="#131313" stop-opacity="0"/>
</linearGradient>
<linearGradient id="paint3_linear_33_1193" x1="579.5" y1="-2.18557e-08" x2="579.5" y2="597" gradientUnits="userSpaceOnUse">
<stop stop-color="#131313" stop-opacity="0"/>
<stop offset="0.555" stop-color="#131313"/>
<stop offset="1" stop-color="#131313" stop-opacity="0"/>
</linearGradient>
<linearGradient id="paint4_linear_33_1193" x1="384.5" y1="-2.18557e-08" x2="384.5" y2="597" gradientUnits="userSpaceOnUse">
<stop stop-color="#131313" stop-opacity="0"/>
<stop offset="0.555" stop-color="#131313"/>
<stop offset="1" stop-color="#131313" stop-opacity="0"/>
</linearGradient>
<linearGradient id="paint5_linear_33_1193" x1="319.5" y1="-2.18557e-08" x2="319.5" y2="597" gradientUnits="userSpaceOnUse">
<stop stop-color="#131313" stop-opacity="0"/>
<stop offset="0.555" stop-color="#131313"/>
<stop offset="1" stop-color="#131313" stop-opacity="0"/>
</linearGradient>
<linearGradient id="paint6_linear_33_1193" x1="254.5" y1="-2.18557e-08" x2="254.5" y2="597" gradientUnits="userSpaceOnUse">
<stop stop-color="#131313" stop-opacity="0"/>
<stop offset="0.555" stop-color="#131313"/>
<stop offset="1" stop-color="#131313" stop-opacity="0"/>
</linearGradient>
<linearGradient id="paint7_linear_33_1193" x1="79" y1="228.5" x2="821" y2="228.5" gradientUnits="userSpaceOnUse">
<stop stop-color="#131313" stop-opacity="0"/>
<stop offset="0.555" stop-color="#131313"/>
<stop offset="1" stop-color="#131313" stop-opacity="0"/>
</linearGradient>
<linearGradient id="paint8_linear_33_1193" x1="79" y1="98.5" x2="821" y2="98.5" gradientUnits="userSpaceOnUse">
<stop stop-color="#131313" stop-opacity="0"/>
<stop offset="0.555" stop-color="#131313"/>
<stop offset="1" stop-color="#131313" stop-opacity="0"/>
</linearGradient>
<linearGradient id="paint9_linear_33_1193" x1="79" y1="293.5" x2="821" y2="293.5" gradientUnits="userSpaceOnUse">
<stop stop-color="#131313" stop-opacity="0"/>
<stop offset="0.555" stop-color="#131313"/>
<stop offset="1" stop-color="#131313" stop-opacity="0"/>
</linearGradient>
<linearGradient id="paint10_linear_33_1193" x1="79" y1="163.5" x2="821" y2="163.5" gradientUnits="userSpaceOnUse">
<stop stop-color="#131313" stop-opacity="0"/>
<stop offset="0.555" stop-color="#131313"/>
<stop offset="1" stop-color="#131313" stop-opacity="0"/>
</linearGradient>
<linearGradient id="paint11_linear_33_1193" x1="79" y1="358.5" x2="821" y2="358.5" gradientUnits="userSpaceOnUse">
<stop stop-color="#131313" stop-opacity="0"/>
<stop offset="0.555" stop-color="#131313"/>
<stop offset="1" stop-color="#131313" stop-opacity="0"/>
</linearGradient>
<linearGradient id="paint12_linear_33_1193" x1="79" y1="423.5" x2="821" y2="423.5" gradientUnits="userSpaceOnUse">
<stop stop-color="#131313" stop-opacity="0"/>
<stop offset="0.555" stop-color="#131313"/>
<stop offset="1" stop-color="#131313" stop-opacity="0"/>
</linearGradient>
<linearGradient id="paint13_linear_33_1193" x1="79" y1="488.5" x2="821" y2="488.5" gradientUnits="userSpaceOnUse">
<stop stop-color="#131313" stop-opacity="0"/>
<stop offset="0.555" stop-color="#131313"/>
<stop offset="1" stop-color="#131313" stop-opacity="0"/>
</linearGradient>
<linearGradient id="paint14_linear_33_1193" x1="450" y1="304.5" x2="450" y2="375" gradientUnits="userSpaceOnUse">
<stop stop-color="#F94612"/>
<stop offset="1" stop-color="#D22F00"/>
</linearGradient>
<linearGradient id="paint15_linear_33_1193" x1="368" y1="188" x2="518.5" y2="389" gradientUnits="userSpaceOnUse">
<stop stop-color="#FF9C80"/>
<stop offset="1" stop-color="#F94612"/>
</linearGradient>
<linearGradient id="paint16_linear_33_1193" x1="430.667" y1="263.4" x2="474" y2="333.267" gradientUnits="userSpaceOnUse">
<stop stop-color="#F3F0FF"/>
<stop offset="1" stop-color="#FFE0D8"/>
</linearGradient>
<linearGradient id="paint17_linear_33_1193" x1="449.5" y1="419" x2="449.5" y2="597" gradientUnits="userSpaceOnUse">
<stop stop-color="#FBD19E" stop-opacity="0"/>
<stop offset="1" stop-color="#FBD29F"/>
</linearGradient>
<linearGradient id="paint18_linear_33_1193" x1="532" y1="293" x2="740.5" y2="189" gradientUnits="userSpaceOnUse">
<stop stop-color="#6B6B6B"/>
<stop offset="1" stop-color="#D1D1D1" stop-opacity="0"/>
</linearGradient>
<linearGradient id="paint19_linear_33_1193" x1="244" y1="312" x2="107.5" y2="395.5" gradientUnits="userSpaceOnUse">
<stop stop-color="#6B6B6B"/>
<stop offset="1" stop-color="#D1D1D1" stop-opacity="0"/>
</linearGradient>
<linearGradient id="paint20_linear_33_1193" x1="537" y1="288.5" x2="736" y2="393" gradientUnits="userSpaceOnUse">
<stop stop-color="#6B6B6B"/>
<stop offset="1" stop-color="#D1D1D1" stop-opacity="0"/>
</linearGradient>
<linearGradient id="paint21_linear_33_1193" x1="364.5" y1="293" x2="240" y2="193" gradientUnits="userSpaceOnUse">
<stop stop-color="#6B6B6B"/>
<stop offset="1" stop-color="#D1D1D1" stop-opacity="0"/>
</linearGradient>
<linearGradient id="paint22_linear_33_1193" x1="158" y1="264.917" x2="158" y2="294.083" gradientUnits="userSpaceOnUse">
<stop stop-color="white"/>
<stop offset="1" stop-color="#999999"/>
</linearGradient>
<linearGradient id="paint23_linear_33_1193" x1="603" y1="175.25" x2="603" y2="210.667" gradientUnits="userSpaceOnUse">
<stop stop-color="white"/>
<stop offset="1" stop-color="#999999"/>
</linearGradient>
<linearGradient id="paint24_linear_33_1193" x1="743" y1="295.75" x2="743" y2="333.25" gradientUnits="userSpaceOnUse">
<stop stop-color="white"/>
<stop offset="1" stop-color="#999999"/>
</linearGradient>
<linearGradient id="paint25_linear_33_1193" x1="304" y1="405.75" x2="304" y2="443.25" gradientUnits="userSpaceOnUse">
<stop stop-color="white"/>
<stop offset="1" stop-color="#999999"/>
</linearGradient>
<clipPath id="clip0_33_1193">
<rect x="368" y="211" width="164" height="164" rx="36" fill="white"/>
</clipPath>
</defs>
</svg>
