<svg width="454" height="453" viewBox="0 0 454 453" fill="none" xmlns="http://www.w3.org/2000/svg">
<rect width="453" height="453" rx="100" transform="matrix(-1 0 0 1 453 0)" fill="url(#paint0_linear_4186_900)"/>
<g opacity="0.6" filter="url(#filter0_f_4186_900)">
<ellipse cx="227" cy="206.5" rx="127" ry="82.5" fill="black"/>
</g>
<path d="M80 174.89V310.073C80 317.445 87.7054 322.283 94.3452 319.079L221.795 257.591C224.534 256.27 227.726 256.266 230.468 257.582L358.673 319.123C365.311 322.309 373 317.471 373 310.107V174.905C373 171.262 371.019 167.908 367.829 166.148L230.971 90.6701C227.958 89.0086 224.303 89.0125 221.293 90.6805L85.1519 166.144C81.9726 167.907 80 171.255 80 174.89Z" fill="#B781D8"/>
<path d="M111 186.682V344.641C111 352.761 120.166 357.496 126.787 352.797L226.208 282.244L326.232 352.867C332.856 357.544 342 352.807 342 344.698V186.697C342 183.683 340.641 180.83 338.3 178.931L226.208 88L114.681 178.932C112.352 180.831 111 183.677 111 186.682Z" fill="white"/>
<path opacity="0.1" d="M338.787 179.488L226 88V277.786C226 281.053 227.596 284.115 230.275 285.985L326.328 353.056C332.946 357.678 342.03 352.957 342.053 344.885L342.487 187.282C342.495 184.258 341.135 181.393 338.787 179.488Z" fill="#6806A5"/>
<defs>
<filter id="filter0_f_4186_900" x="0" y="24" width="454" height="365" filterUnits="userSpaceOnUse" color-interpolation-filters="sRGB">
<feFlood flood-opacity="0" result="BackgroundImageFix"/>
<feBlend mode="normal" in="SourceGraphic" in2="BackgroundImageFix" result="shape"/>
<feGaussianBlur stdDeviation="50" result="effect1_foregroundBlur_4186_900"/>
</filter>
<linearGradient id="paint0_linear_4186_900" x1="226.5" y1="0" x2="226.5" y2="453" gradientUnits="userSpaceOnUse">
<stop stop-color="#951AD7"/>
<stop offset="1" stop-color="#61019E"/>
</linearGradient>
</defs>
</svg>
