<svg width="453" height="453" viewBox="0 0 453 453" fill="none" xmlns="http://www.w3.org/2000/svg">
<rect width="453" height="453" rx="100" transform="matrix(-1 0 0 1 453 0)" fill="url(#paint0_linear_4186_921)"/>
<path d="M225.679 286.35L59.999 73.074L391.359 73.074L225.679 286.35Z" fill="url(#paint1_linear_4186_921)"/>
<path d="M179.801 72.1026L167.226 79.3829L179.316 87.4429L208.34 106.792L164.115 344.5L163.199 349.428L166.893 352.815L221.272 402.662L227.51 408.38L233.625 402.531L285.738 352.683L289.251 349.323L288.384 344.54L245.26 106.808L274.309 87.4429L286.243 79.4865L273.914 72.1559L231.997 47.2323L227.44 44.5223L222.851 47.1791L179.801 72.1026Z" fill="white" stroke="url(#paint2_linear_4186_921)" stroke-width="18.0742"/>
<defs>
<linearGradient id="paint0_linear_4186_921" x1="226.5" y1="0" x2="226.5" y2="453" gradientUnits="userSpaceOnUse">
<stop stop-color="#30D556"/>
<stop offset="1" stop-color="#14A52E"/>
</linearGradient>
<linearGradient id="paint1_linear_4186_921" x1="225.679" y1="83" x2="225.679" y2="223" gradientUnits="userSpaceOnUse">
<stop stop-color="white" stop-opacity="0"/>
<stop offset="1" stop-color="white"/>
</linearGradient>
<linearGradient id="paint2_linear_4186_921" x1="226.246" y1="55" x2="226.246" y2="396" gradientUnits="userSpaceOnUse">
<stop stop-color="#2DCF51"/>
<stop offset="1" stop-color="#17AA33"/>
</linearGradient>
</defs>
</svg>
